<svg width="55" height="55" viewBox="0 0 55 55" fill="none" xmlns="http://www.w3.org/2000/svg">
<rect x="6.54248" y="41.3036" width="47.2146" height="16.6676" rx="8.33381" transform="rotate(-53.5 6.54248 41.3036)" fill="white" stroke="#B4B4B4" stroke-width="2"/>
<path d="M36.5051 9.8291C36.7838 9.45239 36.7044 8.92104 36.3277 8.64228C35.951 8.36353 35.4197 8.44294 35.1409 8.81966C34.8622 9.19637 34.9416 9.72772 35.3183 10.0065C35.695 10.2852 36.2263 10.2058 36.5051 9.8291Z" fill="#7D7D7D"/>
<path d="M34.0565 11.7117C34.4332 11.9905 34.5126 12.5218 34.2338 12.8985C33.9551 13.2752 33.4237 13.3547 33.047 13.0759C32.6703 12.7972 32.5909 12.2658 32.8697 11.8891C33.1484 11.5124 33.6798 11.433 34.0565 11.7117Z" fill="#7D7D7D"/>
<path d="M31.7852 14.7812C32.1619 15.0599 32.2413 15.5913 31.9626 15.968C31.6838 16.3447 31.1525 16.4241 30.7758 16.1453C30.3991 15.8666 30.3196 15.3352 30.5984 14.9585C30.8771 14.5818 31.4085 14.5024 31.7852 14.7812Z" fill="#7D7D7D"/>
<path d="M39.5745 12.1003C39.8533 11.7236 39.7739 11.1923 39.3971 10.9135C39.0204 10.6348 38.4891 10.7142 38.2103 11.0909C37.9316 11.4676 38.011 11.999 38.3877 12.2777C38.7644 12.5565 39.2958 12.4771 39.5745 12.1003Z" fill="#7D7D7D"/>
<path d="M34.8546 17.0524C35.2313 17.3311 35.3108 17.8625 35.032 18.2392C34.7533 18.6159 34.2219 18.6953 33.8452 18.4166C33.4685 18.1378 33.3891 17.6065 33.6678 17.2298C33.9466 16.853 34.4779 16.7736 34.8546 17.0524Z" fill="#7D7D7D"/>
<path d="M37.1259 13.983C37.5026 14.2617 37.582 14.7931 37.3033 15.1698C37.0245 15.5465 36.4932 15.6259 36.1165 15.3472C35.7397 15.0684 35.6603 14.5371 35.9391 14.1603C36.2178 13.7836 36.7492 13.7042 37.1259 13.983Z" fill="#7D7D7D"/>
<path d="M42.4666 13.1848C42.8433 13.4636 42.9227 13.9949 42.6439 14.3716C42.3652 14.7483 41.8338 14.8277 41.4571 14.549C41.0804 14.2702 41.001 13.7389 41.2798 13.3622C41.5585 12.9855 42.0899 12.9061 42.4666 13.1848Z" fill="#7D7D7D"/>
<path d="M38.1014 20.5105C38.3802 20.1338 38.3008 19.6024 37.9241 19.3237C37.5474 19.0449 37.016 19.1243 36.7372 19.501C36.4585 19.8777 36.5379 20.4091 36.9146 20.6879C37.2913 20.9666 37.8227 20.8872 38.1014 20.5105Z" fill="#7D7D7D"/>
<path d="M40.3727 17.4411C40.6514 17.0643 40.572 16.533 40.1953 16.2542C39.8186 15.9755 39.2873 16.0549 39.0085 16.4316C38.7298 16.8083 38.8092 17.3397 39.1859 17.6184C39.5626 17.8972 40.0939 17.8178 40.3727 17.4411Z" fill="#7D7D7D"/>
<path d="M13.1105 40.0186C13.4872 40.2974 13.5666 40.8287 13.2879 41.2054C13.0091 41.5822 12.4778 41.6616 12.1011 41.3828C11.7244 41.1041 11.645 40.5727 11.9237 40.196C12.2025 39.8193 12.7338 39.7399 13.1105 40.0186Z" fill="#7D7D7D"/>
<path d="M15.3818 36.9492C15.7585 37.228 15.8379 37.7593 15.5592 38.136C15.2804 38.5127 14.749 38.5921 14.3723 38.3134C13.9956 38.0346 13.9162 37.5033 14.195 37.1266C14.4737 36.7499 15.0051 36.6705 15.3818 36.9492Z" fill="#7D7D7D"/>
<path d="M17.8304 35.0666C18.1092 34.6899 18.0298 34.1585 17.653 33.8798C17.2763 33.601 16.745 33.6804 16.4662 34.0571C16.1875 34.4339 16.2669 34.9652 16.6436 35.244C17.0203 35.5227 17.5517 35.4433 17.8304 35.0666Z" fill="#7D7D7D"/>
<path d="M18.4512 39.2205C18.8279 39.4992 18.9073 40.0306 18.6286 40.4073C18.3498 40.784 17.8185 40.8634 17.4418 40.5847C17.065 40.3059 16.9856 39.7745 17.2644 39.3978C17.5431 39.0211 18.0745 38.9417 18.4512 39.2205Z" fill="#7D7D7D"/>
<path d="M16.18 42.2899C16.5567 42.5686 16.6361 43.1 16.3573 43.4767C16.0786 43.8534 15.5472 43.9328 15.1705 43.6541C14.7938 43.3753 14.7144 42.844 14.9931 42.4672C15.2719 42.0905 15.8032 42.0111 16.18 42.2899Z" fill="#7D7D7D"/>
<path d="M20.8998 37.3378C21.1786 36.9611 21.0992 36.4298 20.7225 36.151C20.3458 35.8723 19.8144 35.9517 19.5357 36.3284C19.2569 36.7051 19.3363 37.2365 19.713 37.5152C20.0897 37.794 20.6211 37.7145 20.8998 37.3378Z" fill="#7D7D7D"/>
<path d="M21.698 42.6785C21.9768 42.3018 21.8974 41.7705 21.5206 41.4917C21.1439 41.213 20.6126 41.2924 20.3338 41.6691C20.0551 42.0458 20.1345 42.5772 20.5112 42.8559C20.8879 43.1347 21.4193 43.0552 21.698 42.6785Z" fill="#7D7D7D"/>
<path d="M19.4268 45.748C19.7055 45.3713 19.6261 44.8399 19.2494 44.5611C18.8727 44.2824 18.3413 44.3618 18.0626 44.7385C17.7838 45.1152 17.8632 45.6466 18.2399 45.9253C18.6167 46.2041 19.148 46.1247 19.4268 45.748Z" fill="#7D7D7D"/>
<path d="M23.7919 38.4223C24.1686 38.701 24.248 39.2324 23.9693 39.6091C23.6905 39.9858 23.1592 40.0652 22.7825 39.7865C22.4057 39.5077 22.3263 38.9764 22.6051 38.5997C22.8838 38.223 23.4152 38.1435 23.7919 38.4223Z" fill="#7D7D7D"/>
<rect x="41.5126" y="49.4239" width="49.2146" height="18.6676" rx="9.33381" transform="rotate(-143.5 41.5126 49.4239)" fill="#B5B5B5"/>
<rect x="28.5391" y="37.7128" width="14.425" height="15.2735" rx="6" transform="rotate(-143.5 28.5391 37.7128)" fill="#7D7D7D"/>
<path d="M25.4597 35.4277C26.7496 36.3544 27.5409 36.7959 28.3832 36.67C29.426 36.5142 30.1398 35.5495 31.5674 33.6203L33.7119 30.7221C30.2105 31.9264 27.3756 33.1313 25.4597 35.4277Z" fill="#55504C"/>
<path d="M33.7967 22.6032C35.5027 23.8674 36.3849 24.5595 36.5678 25.5119C30.6589 28.6345 27.084 31.2848 24.2502 34.5392L22.718 33.4055C23.5573 32.6389 24.4767 31.618 25.5256 30.4533C27.6287 28.1179 30.2527 25.2042 33.7967 22.6032Z" fill="#55504C"/>
<path d="M29.5756 19.4805C29.7486 19.6076 29.9301 19.7419 30.121 19.8832L31.9253 21.2183C28.9533 23.156 27.1965 25.0864 25.4891 26.9626C24.0089 28.5892 22.5659 30.1749 20.4003 31.689C19.0376 30.6706 18.2785 30.0299 18.0435 29.2357C20.3912 28.5183 22.0597 26.6749 23.9283 24.6105C25.4966 22.8779 27.2058 20.9896 29.5756 19.4805Z" fill="#55504C"/>
<path d="M14.7811 22.7824C15.0598 22.4057 15.5912 22.3263 15.9679 22.6051C16.3446 22.8838 16.424 23.4152 16.1453 23.7919C15.8665 24.1686 15.3351 24.248 14.9584 23.9693C14.5817 23.6905 14.5023 23.1591 14.7811 22.7824Z" fill="#7D7D7D"/>
<path d="M11.7116 20.5112C11.9904 20.1345 12.5217 20.0551 12.8985 20.3338C13.2752 20.6126 13.3546 21.1439 13.0758 21.5206C12.7971 21.8973 12.2657 21.9768 11.889 21.698C11.5123 21.4192 11.4329 20.8879 11.7116 20.5112Z" fill="#7D7D7D"/>
<path d="M9.82903 18.0626C9.45232 17.7838 8.92096 17.8632 8.64221 18.2399C8.36346 18.6166 8.44287 19.148 8.81958 19.4267C9.1963 19.7055 9.72765 19.6261 10.0064 19.2494C10.2852 18.8727 10.2057 18.3413 9.82903 18.0626Z" fill="#7D7D7D"/>
<path d="M17.0523 19.713C17.3311 19.3363 17.8624 19.2569 18.2391 19.5356C18.6159 19.8144 18.6953 20.3457 18.4165 20.7225C18.1378 21.0992 17.6064 21.1786 17.2297 20.8998C16.853 20.6211 16.7736 20.0897 17.0523 19.713Z" fill="#7D7D7D"/>
<path d="M13.9829 17.4418C14.2616 17.065 14.793 16.9856 15.1697 17.2644C15.5464 17.5431 15.6258 18.0745 15.3471 18.4512C15.0683 18.8279 14.537 18.9073 14.1603 18.6286C13.7836 18.3498 13.7041 17.8185 13.9829 17.4418Z" fill="#7D7D7D"/>
<path d="M12.1003 14.9931C11.7236 14.7144 11.1922 14.7938 10.9135 15.1705C10.6347 15.5472 10.7141 16.0786 11.0908 16.3573C11.4676 16.6361 11.9989 16.5567 12.2777 16.1799C12.5564 15.8032 12.477 15.2719 12.1003 14.9931Z" fill="#7D7D7D"/>
<path d="M20.5104 16.4662C20.1337 16.1875 19.6023 16.2669 19.3236 16.6436C19.0448 17.0203 19.1242 17.5517 19.501 17.8304C19.8777 18.1092 20.409 18.0297 20.6878 17.653C20.9665 17.2763 20.8871 16.745 20.5104 16.4662Z" fill="#7D7D7D"/>
<path d="M17.441 14.195C17.0643 13.9162 16.5329 13.9956 16.2542 14.3723C15.9754 14.749 16.0548 15.2804 16.4315 15.5591C16.8082 15.8379 17.3396 15.7585 17.6183 15.3818C17.8971 15.0051 17.8177 14.4737 17.441 14.195Z" fill="#7D7D7D"/>
<path d="M13.1847 12.1011C13.4635 11.7244 13.9948 11.645 14.3715 11.9237C14.7483 12.2025 14.8277 12.7338 14.5489 13.1105C14.2702 13.4872 13.7388 13.5666 13.3621 13.2879C12.9854 13.0091 12.906 12.4778 13.1847 12.1011Z" fill="#7D7D7D"/>
<path d="M40.0186 41.4572C40.2974 41.0805 40.8287 41.0011 41.2054 41.2798C41.5821 41.5586 41.6616 42.0899 41.3828 42.4666C41.1041 42.8433 40.5727 42.9227 40.196 42.644C39.8193 42.3652 39.7399 41.8339 40.0186 41.4572Z" fill="#7D7D7D"/>
<path d="M36.9492 39.1859C37.2279 38.8092 37.7593 38.7298 38.136 39.0086C38.5127 39.2873 38.5921 39.8187 38.3134 40.1954C38.0346 40.5721 37.5033 40.6515 37.1266 40.3727C36.7498 40.094 36.6704 39.5626 36.9492 39.1859Z" fill="#7D7D7D"/>
<path d="M35.0666 36.7373C34.6899 36.4585 34.1585 36.538 33.8798 36.9147C33.601 37.2914 33.6804 37.8227 34.0571 38.1015C34.4338 38.3802 34.9652 38.3008 35.244 37.9241C35.5227 37.5474 35.4433 37.016 35.0666 36.7373Z" fill="#7D7D7D"/>
<path d="M42.2899 38.3878C42.5686 38.011 43.1 37.9316 43.4767 38.2104C43.8534 38.4891 43.9328 39.0205 43.6541 39.3972C43.3753 39.7739 42.844 39.8533 42.4672 39.5746C42.0905 39.2958 42.0111 38.7645 42.2899 38.3878Z" fill="#7D7D7D"/>
<path d="M39.2204 36.1165C39.4992 35.7398 40.0306 35.6604 40.4073 35.9391C40.784 36.2179 40.8634 36.7492 40.5846 37.1259C40.3059 37.5027 39.7745 37.5821 39.3978 37.3033C39.0211 37.0246 38.9417 36.4932 39.2204 36.1165Z" fill="#7D7D7D"/>
<path d="M37.3378 33.6679C36.9611 33.3891 36.4298 33.4685 36.151 33.8452C35.8723 34.222 35.9517 34.7533 36.3284 35.0321C36.7051 35.3108 37.2365 35.2314 37.5152 34.8547C37.794 34.478 37.7145 33.9466 37.3378 33.6679Z" fill="#7D7D7D"/>
<path d="M45.7479 35.141C45.3712 34.8622 44.8399 34.9416 44.5611 35.3183C44.2824 35.695 44.3618 36.2264 44.7385 36.5051C45.1152 36.7839 45.6466 36.7045 45.9253 36.3278C46.2041 35.9511 46.1247 35.4197 45.7479 35.141Z" fill="#7D7D7D"/>
<path d="M42.6785 32.8697C42.3018 32.5909 41.7705 32.6704 41.4917 33.0471C41.213 33.4238 41.2924 33.9551 41.6691 34.2339C42.0458 34.5126 42.5771 34.4332 42.8559 34.0565C43.1346 33.6798 43.0552 33.1485 42.6785 32.8697Z" fill="#7D7D7D"/>
<path d="M38.4223 30.7758C38.701 30.3991 39.2324 30.3197 39.6091 30.5984C39.9858 30.8772 40.0652 31.4086 39.7865 31.7853C39.5077 32.162 38.9764 32.2414 38.5996 31.9626C38.2229 31.6839 38.1435 31.1525 38.4223 30.7758Z" fill="#7D7D7D"/>
</svg>
