<svg width="31" height="48" viewBox="0 0 31 48" fill="none" xmlns="http://www.w3.org/2000/svg">
<path d="M29.0866 15.6432C28.3821 14.7408 27.5822 14.0324 26.8226 13.4872C26.8969 13.3311 26.9593 13.1885 27.0086 13.0609C27.4877 11.82 28.0019 9.31561 26.0597 6.4837C25.1752 5.19412 23.7992 3.87794 21.8527 2.45944C19.2346 0.551675 17.9931 0 16.3174 0C14.364 0 12.5388 0.971882 11.4482 2.59246C9.27144 5.82717 2.05843 16.7393 0.627805 21.3407C0.257286 22.5318 -0.869706 26.1566 1.27496 29.3835C2.28558 30.9041 3.62639 31.7434 4.89093 32.2189C4.86765 32.2583 4.84457 32.2976 4.82129 32.3371C3.78936 34.0856 2.72241 35.8934 1.94244 38.0056C1.27222 39.8238 1.53671 41.8626 2.64964 43.4591C3.78291 45.0846 5.39958 45.8194 7.47813 46.4231C8.96803 46.8558 10.2124 47.0751 11.1759 47.0751C13.1232 47.0749 14.4575 46.2684 15.2326 45.5933C16.3813 44.593 17.9495 42.5876 21.0111 38.5632C21.5757 37.8211 22.0972 37.1355 22.5182 36.593C24.0067 34.6749 29.1719 27.1896 30.3969 24.0996C31.5298 21.2442 31.0521 18.1621 29.0866 15.6432Z" fill="#DDDDDD"/>
<path d="M15.5284 5.17239C15.7369 5.17239 21.336 8.71971 20.7448 10.2499C20.1536 11.7799 13.9285 20.5088 13.9285 20.5088L19.9101 16.2314C19.9101 16.2314 19.91 16.2314 21.4402 16.8921C22.9704 17.5529 24.9528 19.2222 24.1526 21.2393C23.3529 23.2564 18.9014 29.9682 17.093 32.2982C15.2848 34.6281 11.668 39.5319 10.5897 40.4705C10.3002 40.7229 6.53046 39.6906 6.65996 39.3392C7.58509 36.8338 9.23345 34.5584 10.6246 31.9157C11.7567 29.7648 15.2152 23.9867 15.2152 23.9867L16.0845 22.3522C16.0845 22.3522 13.6871 24.151 12.3981 25.1343C10.7116 26.4209 10.5201 26.6993 8.57261 26.4211C6.62514 26.1429 4.15594 26.5254 5.44278 22.3871C6.72962 18.2484 15.5284 5.17239 15.5284 5.17239Z" fill="#313131"/>
</svg>
