<svg width="60" height="60" viewBox="0 0 60 60" fill="none" xmlns="http://www.w3.org/2000/svg">
<g clip-path="url(#clip0_14_4)">
<path d="M43.6698 35.9805L29.8211 31.8783L25.2363 47.3564L19.5339 45.6672L18.8703 47.9075L44.1239 55.3879L44.7875 53.1477L39.085 51.4585L43.6698 35.9805Z" fill="#D3D5D9"/>
<path d="M43.6698 35.9805L29.8211 31.8783L25.2363 47.3564L19.5339 45.6672L18.8703 47.9075L44.1239 55.3879L44.7875 53.1477L39.085 51.4585L43.6698 35.9805Z" fill="url(#paint0_linear_14_4)" fill-opacity="0.4"/>
<path d="M15.6189 11.9772L13.8034 23.2038L39.0559 37.4098L54.1023 27.969L49.2761 25.7844L58.5093 15.3479L39.7991 15.1848L40.8049 8.70199L28.1968 15.703L24.9645 7.82511L19.3229 15.402L15.6189 11.9772Z" fill="#FF5959"/>
<path d="M17.228 16.1026L16.779 26.5388L35.5047 34.291L54.4169 23.7212L44.8133 22.7639L47.631 19.2613L35.2731 21.4478L37.586 13.6398L26.0771 18.7238L24.1912 13.9797L20.4413 17.9981L17.228 16.1026Z" stroke="#FFDD2C" stroke-width="2"/>
<path d="M20.5827 18.7949C20.4975 19.0824 20.1954 19.2464 19.908 19.1613C19.6205 19.0761 19.4565 18.774 19.5416 18.4865C19.6268 18.1991 19.9289 18.035 20.2163 18.1202C20.5038 18.2054 20.6678 18.5074 20.5827 18.7949Z" fill="#FFDD2C"/>
<path d="M32.9209 17.92C32.8357 18.2075 32.5336 18.3715 32.2462 18.2864C31.9587 18.2012 31.7947 17.8991 31.8798 17.6116C31.965 17.3242 32.2671 17.1601 32.5545 17.2453C32.842 17.3305 33.006 17.6325 32.9209 17.92Z" fill="#FFDD2C"/>
<path d="M31.2631 19.6938C31.1779 19.9813 30.8758 20.1453 30.5883 20.0601C30.3009 19.975 30.1368 19.6729 30.222 19.3854C30.3072 19.0979 30.6092 18.9339 30.8967 19.0191C31.1842 19.1042 31.3482 19.4063 31.2631 19.6938Z" fill="#FFDD2C"/>
<path d="M23.3589 19.6173C23.2737 19.9047 22.9716 20.0688 22.6841 19.9836C22.3967 19.8985 22.2326 19.5964 22.3178 19.3089C22.403 19.0214 22.705 18.8574 22.9925 18.9425C23.28 19.0277 23.444 19.3298 23.3589 19.6173Z" fill="#FFDD2C"/>
<path d="M33.281 21.8014C33.1959 22.0889 32.8938 22.2529 32.6063 22.1678C32.3188 22.0826 32.1548 21.7805 32.24 21.493C32.3251 21.2056 32.6272 21.0415 32.9147 21.1267C33.2022 21.2118 33.3662 21.5139 33.281 21.8014Z" fill="#FFDD2C"/>
<path d="M44.0256 21.2094C43.9404 21.4969 43.6383 21.6609 43.3509 21.5757C43.0634 21.4906 42.8994 21.1885 42.9845 20.901C43.0697 20.6135 43.3718 20.4495 43.6592 20.5347C43.9467 20.6198 44.1107 20.9219 44.0256 21.2094Z" fill="#FFDD2C"/>
<path d="M39.5916 22.1608C39.5064 22.4483 39.2043 22.6123 38.9169 22.5271C38.6294 22.442 38.4654 22.1399 38.5505 21.8524C38.6357 21.5649 38.9378 21.4009 39.2252 21.4861C39.5127 21.5712 39.6767 21.8733 39.5916 22.1608Z" fill="#FFDD2C"/>
<path d="M37.3425 23.3819C37.2574 23.6694 36.9553 23.8334 36.6678 23.7483C36.3803 23.6631 36.2163 23.361 36.3015 23.0736C36.3866 22.7861 36.6887 22.6221 36.9762 22.7072C37.2637 22.7924 37.4277 23.0945 37.3425 23.3819Z" fill="#FFDD2C"/>
<path d="M40.1187 24.2043C40.0335 24.4918 39.7314 24.6558 39.444 24.5706C39.1565 24.4855 38.9925 24.1834 39.0776 23.8959C39.1628 23.6084 39.4649 23.4444 39.7523 23.5296C40.0398 23.6147 40.2038 23.9168 40.1187 24.2043Z" fill="#FFDD2C"/>
<path d="M47.9201 24.6278C47.8349 24.9153 47.5329 25.0793 47.2454 24.9942C46.9579 24.909 46.7939 24.6069 46.879 24.3194C46.9642 24.032 47.2663 23.8679 47.5538 23.9531C47.8412 24.0383 48.0053 24.3403 47.9201 24.6278Z" fill="#FFDD2C"/>
<path d="M44.7328 25.1936C44.6476 25.481 44.3455 25.6451 44.058 25.5599C43.7706 25.4748 43.6065 25.1727 43.6917 24.8852C43.7769 24.5977 44.0789 24.4337 44.3664 24.5188C44.6539 24.604 44.8179 24.9061 44.7328 25.1936Z" fill="#FFDD2C"/>
<rect x="14.4264" y="17.915" width="28.5921" height="20.9917" transform="rotate(16.5 14.4264 17.915)" fill="#E9EAEC"/>
<mask id="mask0_14_4" style="mask-type:alpha" maskUnits="userSpaceOnUse" x="12" y="23" width="23" height="18">
<rect x="15.2908" y="21.5999" width="21.7526" height="14.8637" rx="7.43184" transform="rotate(16.5 15.2908 21.5999)" fill="#82868F"/>
</mask>
<g mask="url(#mask0_14_4)">
<rect x="15.2908" y="21.5999" width="21.7526" height="14.8637" rx="7.43184" transform="rotate(16.5 15.2908 21.5999)" fill="#82868F"/>
<path d="M8.36548 24.3256L27.6723 49.0235L27.0852 49.4824L7.77843 24.7845L8.36548 24.3256Z" fill="#565F6F"/>
<path d="M6.60432 25.7023L25.9111 50.4002L25.3241 50.8591L6.01727 26.1612L6.60432 25.7023Z" fill="#565F6F"/>
<path d="M11.8878 21.5721L31.1946 46.27L30.6075 46.7289L11.3008 22.031L11.8878 21.5721Z" fill="#565F6F"/>
<path d="M10.1266 22.9488L29.4334 47.6467L28.8464 48.1057L9.53959 23.4077L10.1266 22.9488Z" fill="#565F6F"/>
<path d="M15.4101 18.8186L34.7169 43.5166L34.1299 43.9755L14.8231 19.2776L15.4101 18.8186Z" fill="#565F6F"/>
<path d="M13.649 20.1954L32.9558 44.8933L32.3687 45.3522L13.0619 20.6543L13.649 20.1954Z" fill="#565F6F"/>
<path d="M18.9325 16.0652L38.2392 40.7631L37.6522 41.222L18.3454 16.5241L18.9325 16.0652Z" fill="#565F6F"/>
<path d="M17.1713 17.4419L36.4781 42.1398L35.891 42.5987L16.5842 17.9008L17.1713 17.4419Z" fill="#565F6F"/>
<path d="M20.4168 14.4901L39.7236 39.188L39.1366 39.6469L19.8298 14.949L20.4168 14.4901Z" fill="#565F6F"/>
<path d="M21.8843 12.9568L41.1911 37.6547L40.604 38.1136L21.2972 13.4157L21.8843 12.9568Z" fill="#565F6F"/>
</g>
<path d="M23.8864 26.7567L22.1513 26.2428C22.0917 26.2251 22.0619 26.2163 22.0366 26.2091C19.4202 25.4639 16.6881 26.9473 15.8881 29.5474C15.8804 29.5726 15.8715 29.6024 15.8539 29.662V29.662" stroke="white" stroke-width="2"/>
<path d="M46.3088 27.7366L40.3501 25.9715L34.4909 45.7517L47.6777 49.6578L50.9202 38.7115L48.007 37.8486L46.3088 27.7366Z" fill="#F4F5F6"/>
<rect x="13.2825" y="17.9537" width="27.8683" height="20.6298" transform="rotate(16.5 13.2825 17.9537)" stroke="#848D9B" stroke-width="2"/>
<path d="M41.3388 40.6082L37.087 44.6334M42.9461 41.0843L38.6943 45.1094M44.5533 41.5604L40.3015 45.5855M46.1606 42.0365L41.9088 46.0616" stroke="#A7ABB4" stroke-width="2"/>
<path d="M41.0442 26.1771L46.2524 27.7198L47.9177 37.8482L50.5661 38.6327L47.4336 49.208L43.4086 48.0158" stroke="#848D9B" stroke-width="2"/>
<path d="M6.47326 45.1363L42.1334 49.633L40.7628 54.2599L34.6217 54.9573L6.0694 46.4997L6.47326 45.1363Z" fill="#C2C5CB"/>
<path d="M13.4635 41.228L41.3848 49.4986L34.4207 53.417L6.47642 45.1395L13.4635 41.228Z" fill="#F4F5F6"/>
<path d="M23.0315 47.6066L35.0286 51.1603L35.9164 50.7587L23.8235 47.1766L23.0315 47.6066Z" fill="#CDCFD5"/>
<path d="M22.9594 46.9207L10.9623 43.367L10.0745 43.7686L22.1675 47.3507L22.9594 46.9207Z" fill="#CDCFD5"/>
<path d="M16.9367 44.2505L29.3105 47.9158L30.1025 47.4858L17.7287 43.8205L16.9367 44.2505Z" fill="#CDCFD5"/>
<path d="M16.8647 43.5646L12.8102 42.3636L11.9224 42.7652L16.0727 43.9946L16.8647 43.5646Z" fill="#CDCFD5"/>
<path d="M36.8765 50.157L30.1746 48.1718L30.9665 47.7417L37.7643 49.7553L36.8765 50.157Z" fill="#CDCFD5"/>
<path d="M14.6131 45.9991L25.1075 49.1077L24.4234 49.5696L13.929 46.461L14.6131 45.9991Z" fill="#CDCFD5"/>
<path d="M12.669 40.9926L42.1994 49.7399L40.8723 54.2204L34.1404 54.8847L4.71185 46.1675L5.13413 44.7419L12.669 40.9926Z" stroke="#848D9B" stroke-width="2"/>
<path d="M38.7167 16.9385L40.2094 17.3892L39.7987 18.9742L38.3629 18.3344L38.7167 16.9385Z" fill="#FFDD2C"/>
<path d="M17.6711 7.36571L18.3942 9.09737L16.9501 9.70914L16.3902 7.82988L17.6711 7.36571Z" fill="#FF4C4C"/>
<rect width="1.08552" height="2.23265" transform="matrix(-0.0371857 0.999308 -0.999819 -0.0190211 11.9752 15.2762)" fill="#FF4C4C"/>
<rect width="1.67292" height="1.9931" transform="matrix(0.324044 0.946042 -0.942202 0.335045 51.8274 33.2726)" fill="#FF4C4C"/>
<ellipse cx="29.5551" cy="9.32965" rx="0.924055" ry="0.890559" transform="rotate(-100.04 29.5551 9.32965)" fill="#FF4C4C"/>
</g>
<defs>
<linearGradient id="paint0_linear_14_4" x1="39.6982" y1="51.5155" x2="31.4971" y2="51.6477" gradientUnits="userSpaceOnUse">
<stop stop-color="#565F6F"/>
<stop offset="1" stop-color="#565F6F" stop-opacity="0"/>
</linearGradient>
<clipPath id="clip0_14_4">
<rect width="48" height="48" fill="white" transform="translate(13.6327) rotate(16.5)"/>
</clipPath>
</defs>
</svg>
