<svg width="85" height="85" viewBox="0 0 85 85" fill="none" xmlns="http://www.w3.org/2000/svg">
<path d="M30.1305 72.4405C22.1395 69.2102 15.7587 62.9381 12.3916 55.0036C9.02457 47.0692 8.94691 38.1223 12.1758 30.1306L20.1779 10.3246C20.7247 8.9692 21.533 7.73476 22.5569 6.69177C23.5807 5.64877 24.7999 4.81764 26.145 4.24584C27.49 3.67404 28.9345 3.37276 30.3959 3.35921C31.8574 3.34565 33.3072 3.62008 34.6626 4.16684L74.2973 20.1803C77.0331 21.2856 79.218 23.4321 80.3716 26.1479C81.5253 28.8636 81.5533 31.9263 80.4494 34.6627L72.4473 54.4688C70.8494 58.4279 68.4872 62.0334 65.4956 65.0794C62.504 68.1254 58.9416 70.5521 55.012 72.221C51.0823 73.89 46.8623 74.7683 42.5931 74.806C38.3239 74.8437 34.089 74.0399 30.1305 72.4405Z" fill="black"/>
<path d="M25.4367 53.8277L22.3639 52.5862C22.0384 52.4782 21.7334 52.316 21.4618 52.1065C21.4018 52.0603 21.3584 51.996 21.3381 51.9231C21.3177 51.8502 21.3214 51.7727 21.3487 51.7021L24.9954 42.6762C25.1768 42.2273 26.6199 42.5492 29.3249 43.6421C30.8792 44.2701 31.89 44.8529 32.3573 45.3906C32.7869 45.8309 33.0289 46.4206 33.0322 47.0357C33.0022 47.3933 32.9151 47.7436 32.7742 48.0736C32.5815 48.6604 32.2223 49.1785 31.7405 49.5649C31.5935 49.6831 31.424 49.7701 31.2424 49.8206C31.0607 49.8711 30.8706 49.8841 30.6837 49.8587C31.0753 50.1159 31.3687 50.4977 31.5164 50.9423C31.6731 51.3962 31.5878 52.0254 31.2605 52.8301C30.8795 53.7733 30.3168 54.3512 29.5726 54.564C28.9161 54.7551 28.0614 54.6983 27.0084 54.3936C26.5442 54.2554 26.0281 54.0666 25.4367 53.8277ZM27.9094 47.7076C28.3875 47.9008 28.7533 47.68 29.0105 47.0433C29.1319 46.7999 29.1662 46.5222 29.1078 46.2566C29.0871 46.168 29.0462 46.0855 28.9883 46.0153C28.9305 45.9451 28.8573 45.8892 28.7743 45.8519L28.3386 45.6759L27.5727 47.5716L27.9094 47.7076ZM25.9307 51.595L26.2815 51.7367C26.7597 51.9299 27.1254 51.7091 27.3826 51.0724C27.504 50.829 27.5384 50.5514 27.48 50.2857C27.4598 50.1969 27.4192 50.114 27.3613 50.0437C27.3034 49.9735 27.2298 49.9177 27.1465 49.881L26.7107 49.705L25.9307 51.595Z" fill="white"/>
<path d="M35.7728 58.1518C35.095 57.8909 34.4526 57.5462 33.8604 57.1257C33.3586 56.7513 32.9421 56.2745 32.6384 55.7269C31.9948 54.6045 32.0948 52.9993 32.9385 50.9111C33.2412 50.1174 33.6911 49.388 34.2646 48.7612C34.7268 48.2471 35.3128 47.8596 35.9668 47.6355C37.1714 47.2445 38.4886 47.3378 39.9184 47.9155C40.5722 48.1679 41.194 48.4964 41.7709 48.8943C42.2749 49.2552 42.7034 49.7112 43.0322 50.2366C43.7265 51.3422 43.67 52.897 42.8625 54.901C42.137 56.6967 41.1583 57.8373 39.9266 58.3226C38.6948 58.8079 37.3102 58.751 35.7728 58.1518ZM36.2845 55.5576C36.3174 55.6454 36.3683 55.7255 36.4338 55.7926C36.4993 55.8598 36.578 55.9126 36.665 55.9477C36.7519 55.9829 36.8453 55.9996 36.939 55.9968C37.0328 55.994 37.125 55.9717 37.2097 55.9314C37.4763 55.7308 37.6936 55.4718 37.8447 55.1743C38.1808 54.5939 38.4698 53.9876 38.709 53.3611C38.9701 52.7511 39.1808 52.1207 39.3388 51.4762C39.434 51.1643 39.4546 50.8344 39.3988 50.5131C39.3675 50.4244 39.3166 50.344 39.25 50.2777C39.1833 50.2115 39.1025 50.1611 39.0137 50.1303C38.929 50.0903 38.8363 50.0703 38.7426 50.0718C38.649 50.0733 38.5569 50.0964 38.4736 50.1392C38.2111 50.3325 37.9969 50.5839 37.8477 50.8738C37.5163 51.4484 37.2309 52.0485 36.9943 52.6683C36.732 53.2853 36.5178 53.9217 36.3536 54.5718C36.257 54.8911 36.2333 55.228 36.2845 55.5576Z" fill="white"/>
<path d="M44.0648 61.3544C43.4219 61.1005 42.8059 60.7833 42.2259 60.4073C41.6842 60.0536 41.4546 59.7666 41.5472 59.5374C41.5997 59.4072 41.971 59.0504 42.649 58.4883C43.327 57.9263 44.3328 57.1313 45.6567 56.1193C45.3202 52.9115 45.1779 51.2434 45.2297 51.1151C45.3128 50.9095 45.6819 50.8513 46.3371 50.9405C46.9251 51.0141 47.5018 51.1598 48.0543 51.3743C48.4748 51.5261 48.8566 51.7691 49.1721 52.0859C49.4256 52.3628 49.5348 52.5813 49.5025 52.7427L49.0449 55.4476L49.1156 55.4762L50.5012 53.1791C50.5275 53.1141 50.6857 53.0727 50.9453 53.0492C51.2744 53.0253 51.6052 53.0408 51.9306 53.0951C52.3789 53.1658 52.8169 53.2908 53.235 53.4674C53.6407 53.6196 54.0185 53.8379 54.3531 54.1133C54.4783 54.205 54.5686 54.3365 54.6092 54.4863C54.6498 54.636 54.6382 54.7952 54.5763 54.9375C54.2712 55.3766 53.9121 55.7755 53.5074 56.1249C52.8622 56.7551 51.921 57.6157 50.6838 58.7066C51.2021 61.7684 51.433 63.3692 51.3766 63.5088C51.1914 63.9671 50.5424 63.9715 49.4294 63.5218C47.7714 62.8519 46.9727 62.2681 47.0334 61.7704L47.2761 59.5975L47.1912 59.5632L45.9525 61.3337C45.6761 61.7465 45.0468 61.7533 44.0648 61.3544Z" fill="white"/>
<path d="M67.8578 53.0622L75.3066 34.6256C76.0949 32.6746 76.0758 30.4903 75.2536 28.5532C74.4314 26.6162 72.8734 25.0852 70.9223 24.2969L34.2387 9.47575C32.2877 8.68746 30.1034 8.70652 28.1663 9.52874C26.2293 10.351 24.6983 11.909 23.91 13.86L16.4611 32.2966C13.707 39.1134 13.7736 46.745 16.6463 53.5126C19.5189 60.2803 24.9624 65.6296 31.7792 68.3837C38.5959 71.1379 46.2275 71.0713 52.9952 68.1986C59.7628 65.3259 65.1121 59.8824 67.8662 53.0657L67.8578 53.0622ZM52.6892 67.511C47.7785 69.5953 42.3601 70.1767 37.1189 69.1816C31.8778 68.1865 27.0495 65.6596 23.2445 61.9205C19.4394 58.1813 16.8286 53.3978 15.7422 48.1749C14.6557 42.952 15.1424 37.5241 17.1407 32.5778L67.1623 52.7878C65.8431 56.0769 63.8847 59.0718 61.4004 61.599C58.9161 64.1262 55.9553 66.1357 52.6892 67.511Z" fill="white"/>
<path d="M28.9466 24.7489C28.349 24.577 27.7607 24.3745 27.184 24.1421C26.81 24.0121 26.4527 23.8379 26.1199 23.6233C25.986 23.5067 25.9439 23.3909 25.9931 23.2693L28.4314 17.2341L26.4791 16.4453C26.3773 16.4041 26.3433 16.2357 26.3721 15.9445C26.4413 15.5245 26.5637 15.115 26.7361 14.7257C26.9214 14.2459 27.1698 13.7928 27.4746 13.3785C27.7559 13.0083 27.9893 12.8623 28.176 12.9378L35.7702 16.006C35.9089 16.062 35.9525 16.2311 35.8954 16.5108C35.8059 16.9096 35.6793 17.2993 35.5174 17.6746C35.3278 18.1517 35.0838 18.6053 34.7902 19.0264C34.51 19.4267 34.2793 19.5902 34.1011 19.5182L32.3468 18.8094L29.9062 24.8503C29.8678 24.9533 29.5489 24.9199 28.9466 24.7489Z" fill="black"/>
<path d="M36.0584 27.5955C35.4652 27.4435 34.8827 27.2522 34.315 27.0228C33.9337 26.8938 33.5734 26.7095 33.2458 26.4756C33.1837 26.4303 33.1381 26.3659 33.1162 26.2922C33.0942 26.2185 33.0971 26.1397 33.1243 26.0678L36.6121 17.4352C36.707 17.2003 37.0756 17.1024 37.6853 17.1249C38.3327 17.1615 38.9693 17.3074 39.568 17.5565C40.4565 17.9154 40.8157 18.3052 40.6458 18.7259L39.3997 21.8099L40.6503 22.3152L41.7786 19.5226C41.8735 19.2877 42.2422 19.1898 42.8575 19.2146C43.5078 19.2529 44.147 19.4 44.7487 19.6496C45.6296 20.0055 45.9841 20.3934 45.8123 20.8133L42.2068 29.7373C42.1576 29.859 41.8347 29.8437 41.2436 29.6773C40.6505 29.5251 40.0681 29.3338 39.5002 29.1046C39.1217 28.9768 38.7643 28.7936 38.4396 28.5609C38.3774 28.5156 38.3319 28.4512 38.3099 28.3775C38.288 28.3038 38.2908 28.2249 38.318 28.153L39.6121 24.9501L38.3247 24.4299L37.0261 27.6442C36.9769 27.7658 36.654 27.7506 36.0584 27.5955Z" fill="black"/>
<path d="M46.2458 31.7378C45.651 31.5672 45.0656 31.3659 44.4917 31.1345C44.115 31.0029 43.755 30.8277 43.4191 30.6122C43.2824 30.4945 43.2375 30.3776 43.2866 30.2559L46.8144 21.5243C46.8983 21.3168 47.2522 21.2228 47.8762 21.2423C48.5428 21.2708 49.1989 21.4178 49.8139 21.6763C50.4109 21.9175 50.7539 22.2009 50.8378 22.531C50.8666 22.6376 50.8612 22.7506 50.8225 22.854L47.1941 31.8346C47.1586 31.9388 46.8425 31.9065 46.2458 31.7378Z" fill="black"/>
<path d="M51.2889 33.7491C50.688 33.5942 50.0981 33.3998 49.5228 33.1672C49.146 33.0406 48.7904 32.8581 48.4679 32.6258C48.4079 32.5796 48.3645 32.5152 48.3442 32.4423C48.3238 32.3694 48.3275 32.2919 48.3548 32.2213L51.8357 23.6057C51.931 23.3699 52.2867 23.2635 52.9028 23.2864C53.574 23.3229 54.2334 23.4779 54.8506 23.7442C55.0346 23.814 55.2133 23.8972 55.3852 23.9932C55.5338 24.0817 55.6535 24.2115 55.7298 24.3668C55.8061 24.5221 55.8358 24.6961 55.8151 24.8679L55.6987 29.0337L55.7553 29.0566L57.0985 25.732C57.1934 25.4972 57.549 25.3907 58.1599 25.4104C58.8282 25.4454 59.4849 25.5993 60.0992 25.8648C60.6877 26.1026 61.0194 26.365 61.0949 26.6588C61.1444 26.8223 61.1416 26.9972 61.0869 27.1591L57.542 35.9332C57.4928 36.0549 57.1699 36.0396 56.5788 35.8732C55.918 35.6985 55.2695 35.4804 54.6374 35.2204C53.9498 34.9427 53.6101 34.7001 53.6131 34.4972L53.6801 30.5188L53.6094 30.4902L52.2707 33.8035C52.2216 33.9251 51.893 33.9076 51.2889 33.7491Z" fill="black"/>
<path d="M61.6014 37.8832C61.0005 37.7284 60.4106 37.534 59.8354 37.3013C59.4587 37.1745 59.1031 36.992 58.7804 36.7599C58.7205 36.7137 58.6771 36.6493 58.6567 36.5765C58.6363 36.5036 58.64 36.426 58.6673 36.3555L62.1437 27.7512C62.242 27.5078 62.5948 27.4002 63.1966 27.4261C63.8671 27.4674 64.5257 27.6222 65.1444 27.884C65.7102 28.1126 66.0391 28.3738 66.1175 28.6688C66.1749 28.8322 66.1771 29.01 66.1236 29.1748L65.1874 31.4921L65.3006 31.5379C65.32 31.4898 65.6181 31.1593 66.1931 30.5425C67.2806 29.3823 67.9489 28.8525 68.1922 28.9508C68.8375 29.2584 69.4342 29.6591 69.9629 30.1402C70.2961 30.4111 70.5715 30.7462 70.7727 31.1256C70.8641 31.2731 70.921 31.4394 70.939 31.612C70.9571 31.7845 70.9358 31.959 70.8769 32.1222C70.8007 32.3108 70.4658 32.5968 69.8721 32.9801C69.2746 33.3673 68.4138 33.8522 67.2807 34.441C67.3835 34.6998 67.5138 35.0289 67.6677 35.4301C67.8216 35.8313 68.01 36.4077 68.2295 37.1678C68.449 37.9279 68.5136 38.4279 68.4152 38.6713C68.3169 38.9146 67.9819 39.1084 67.413 39.2537C66.8467 39.3972 66.2647 39.4694 65.6805 39.4687C65.2647 39.4915 64.8481 39.4424 64.4491 39.3234C64.2906 39.2593 64.1711 38.928 64.0909 38.3361C63.9946 37.4819 63.9516 36.6225 63.9622 35.7629L63.3172 36.1047L62.5799 37.9297C62.5341 38.0593 62.2083 38.0428 61.6014 37.8832Z" fill="black"/>
<path d="M23.7655 30.3663C23.4498 30.2454 23.1509 30.0848 22.8757 29.8884C22.6413 29.7146 22.4471 29.4925 22.3062 29.237C22.0043 28.7135 22.0503 27.9641 22.4443 26.9889C22.5837 26.6198 22.7922 26.2806 23.0587 25.9897C23.274 25.7493 23.5477 25.5686 23.8533 25.4649C24.4624 25.2882 25.1146 25.3357 25.6917 25.5987C25.9961 25.7164 26.2855 25.8698 26.5537 26.0556C26.7887 26.2225 26.9884 26.434 27.1415 26.6782C27.465 27.1973 27.4392 27.9208 27.062 28.8545C26.7251 29.6883 26.2684 30.2213 25.6919 30.4535C25.0636 30.6809 24.3707 30.6496 23.7655 30.3663ZM24.0077 29.1477C24.0217 29.1895 24.0446 29.2277 24.0748 29.2598C24.105 29.2919 24.1418 29.3171 24.1827 29.3336C24.2236 29.3501 24.2675 29.3576 24.3116 29.3555C24.3556 29.3534 24.3986 29.3418 24.4378 29.3214C24.5619 29.227 24.6635 29.1062 24.7354 28.9677C24.8904 28.6967 25.0243 28.4141 25.1361 28.1225C25.2558 27.8407 25.3534 27.55 25.4281 27.2531C25.4708 27.109 25.4793 26.9569 25.4529 26.8089C25.4389 26.7671 25.416 26.7289 25.3858 26.6968C25.3555 26.6647 25.3187 26.6395 25.2779 26.623C25.237 26.6065 25.193 26.599 25.149 26.6011C25.105 26.6032 25.0619 26.6148 25.0228 26.6351C24.9012 26.7231 24.8024 26.839 24.7349 26.973C24.5798 27.2372 24.4471 27.5139 24.3382 27.8001C24.2152 28.0873 24.1162 28.3842 24.0421 28.6877C23.9958 28.8364 23.984 28.9937 24.0077 29.1477Z" fill="black"/>
<path d="M30.3729 32.4836C29.7888 32.6473 29.1651 32.592 28.619 32.3279C28.04 32.1377 27.5489 31.7453 27.2356 31.2226C27.1164 30.9656 27.0566 30.6851 27.0605 30.4018C27.0644 30.1185 27.132 29.8398 27.2583 29.5861L28.2277 27.1868C28.2711 27.0793 28.4356 27.0305 28.7126 27.0536C29.023 27.073 29.3278 27.1449 29.6141 27.2664C29.7098 27.2905 29.7993 27.3346 29.8767 27.396C29.9541 27.4573 30.0175 27.5344 30.0628 27.6221C30.0876 27.6994 30.0885 27.7824 30.0653 27.8601L29.2788 29.8068C29.1339 30.1291 29.0204 30.4646 28.9399 30.8086C28.9136 30.9823 28.9608 31.0936 29.0815 31.1423C29.2032 31.1915 29.3105 31.146 29.4073 31.0041C29.5819 30.6927 29.7318 30.3681 29.8555 30.0332L30.6157 28.1516C30.6592 28.0441 30.8237 27.9954 31.1007 28.0184C31.4111 28.0375 31.716 28.1094 32.0021 28.2312C32.285 28.3455 32.4314 28.4639 32.465 28.5927C32.4869 28.6699 32.4858 28.7518 32.4619 28.8284L31.4639 31.2985C31.3797 31.5638 31.2384 31.8073 31.0499 32.0121C30.8614 32.2168 30.6303 32.3778 30.3729 32.4836Z" fill="black"/>
<path d="M33.6624 34.2475C33.3841 34.1679 33.1101 34.0737 32.8417 33.9652C32.6664 33.905 32.4994 33.8232 32.3444 33.7216C32.2828 33.6703 32.262 33.6159 32.2849 33.5593L33.4212 30.7468L32.513 30.3799C32.4649 30.3604 32.4504 30.2822 32.4628 30.1457C32.4952 29.9504 32.5522 29.76 32.6325 29.579C32.719 29.3578 32.8334 29.1485 32.9729 28.9563C33.1044 28.7856 33.2118 28.7236 33.2966 28.7579L36.8306 30.1857C36.8957 30.212 36.9158 30.2926 36.8893 30.4234C36.8477 30.6099 36.7884 30.792 36.7123 30.9673C36.6244 31.1877 36.5111 31.3971 36.3747 31.5912C36.2431 31.7783 36.1369 31.8539 36.0548 31.8207L35.2428 31.4927L34.1065 34.3051C34.0905 34.3447 33.9426 34.3278 33.6624 34.2475Z" fill="black"/>
<path d="M38.967 36.12C38.7558 36.1647 38.5382 36.1705 38.3249 36.137C38.0007 36.0892 37.6842 35.999 37.3835 35.8685C37.0312 35.7273 36.6921 35.5551 36.3703 35.3539C36.1387 35.2218 35.9252 35.0603 35.7351 34.8734C35.6205 34.7415 35.5795 34.6394 35.6069 34.5715C35.7101 34.309 35.8478 34.0613 36.0163 33.8351C36.1905 33.5994 36.328 33.5035 36.4242 33.5424C36.4412 33.5493 36.5994 33.679 36.8938 33.9362C37.1034 34.1342 37.3418 34.2994 37.601 34.426C37.7132 34.4845 37.8385 34.5136 37.9651 34.5105C37.9977 34.5023 38.0277 34.4861 38.0524 34.4633C38.0772 34.4405 38.0958 34.4119 38.1066 34.3801C38.1341 34.3122 38.1111 34.2305 38.0378 34.1351C37.9484 34.0278 37.8474 33.9307 37.7367 33.8456C37.5947 33.735 37.4626 33.6122 37.3419 33.4787C37.2171 33.3387 37.1023 33.19 36.9983 33.0338C36.8884 32.8687 36.8214 32.6787 36.8036 32.4812C36.7803 32.255 36.8148 32.0266 36.9039 31.8174C37.2949 30.8497 38.0676 30.5991 39.222 31.0655C39.6029 31.2137 39.9704 31.3942 40.3206 31.6048C40.5381 31.7267 40.737 31.8791 40.9112 32.0574C41.0111 32.1767 41.0499 32.2681 41.0236 32.3332C40.9161 32.583 40.7618 32.81 40.5691 33.002C40.3552 33.2217 40.198 33.3095 40.0989 33.2695C40.046 33.2321 39.9971 33.1892 39.9532 33.1415C39.7744 32.9407 39.557 32.7778 39.3139 32.6627C39.1863 32.6007 39.0475 32.5647 38.9057 32.557C38.8695 32.5591 38.8347 32.5716 38.8055 32.5932C38.7764 32.6147 38.7541 32.6443 38.7415 32.6783C38.713 32.7491 38.7342 32.8268 38.8121 32.9109C38.9048 33.0106 39.0074 33.1006 39.1183 33.1794C39.2593 33.288 39.3915 33.4074 39.5138 33.5367C39.6473 33.6824 39.7663 33.8407 39.8691 34.0094C39.9763 34.1854 40.0391 34.3847 40.0524 34.5903C40.07 34.8338 40.029 35.0779 39.9327 35.3022C39.833 35.5555 39.6622 35.7746 39.4409 35.9329C39.2962 36.0247 39.1354 36.0882 38.967 36.12Z" fill="black"/>
<path d="M41.2466 37.3112C40.9692 37.232 40.6962 37.1382 40.4287 37.0302C40.2526 36.9695 40.0846 36.8873 39.9286 36.7853C39.8642 36.733 39.8434 36.6785 39.8663 36.6219L41.5102 32.5532C41.549 32.457 41.7113 32.4139 42.0036 32.4234C42.3152 32.4361 42.622 32.5043 42.9096 32.6249C43.0143 32.6515 43.1116 32.7016 43.194 32.7714C43.2764 32.8412 43.3419 32.9289 43.3854 33.0277C43.3994 33.0779 43.3974 33.1312 43.3797 33.1802L41.6913 37.3592C41.6719 37.4073 41.524 37.3904 41.2466 37.3112Z" fill="black"/>
<path d="M44.2363 38.5689L42.6915 37.9447C42.543 37.8951 42.4038 37.8211 42.2797 37.7257C42.2516 37.7027 42.2314 37.6714 42.2219 37.6363C42.2125 37.6012 42.2143 37.564 42.2271 37.53L43.8938 33.4047C43.9114 33.3528 43.9439 33.3073 43.9873 33.2739C44.0307 33.2405 44.083 33.2206 44.1376 33.2168C44.3209 33.2191 44.5014 33.2617 44.6664 33.3416L46.1377 33.9361C46.9752 34.2745 47.4858 34.6727 47.6693 35.1309C47.8564 35.5883 47.7725 36.2521 47.4227 37.1179C47.0729 37.9837 46.659 38.5274 46.1862 38.7445C45.7134 38.9616 45.0625 38.9027 44.2363 38.5689ZM45.6687 34.8689C45.5998 34.8356 45.5253 34.8156 45.449 34.8098L44.3813 37.4525L44.62 37.5785C44.7502 37.6311 44.8915 37.5665 45.044 37.3845C45.2715 37.0626 45.4535 36.7108 45.5848 36.3392C45.7458 35.9998 45.8513 35.6369 45.8974 35.2641C45.9046 35.1836 45.8859 35.1029 45.8439 35.0338C45.8019 34.9647 45.7389 34.9109 45.6641 34.8802L45.6687 34.8689Z" fill="black"/>
<path d="M50.2385 40.9935L47.4656 39.8732C47.3162 39.8234 47.176 39.749 47.051 39.6531C47.0233 39.6313 47.0032 39.6012 46.9939 39.5672C46.9845 39.5332 46.9863 39.4971 46.999 39.4642L48.6714 35.3247C48.6894 35.2727 48.7231 35.2275 48.7679 35.1955C48.8127 35.1635 48.8663 35.1461 48.9214 35.1459C49.1283 35.1573 49.3308 35.21 49.517 35.301L52.1455 36.363C52.2389 36.4007 52.2224 36.5718 52.1001 36.8746C52.0128 37.1098 51.8989 37.3344 51.7606 37.5438C51.657 37.6862 51.5741 37.7449 51.509 37.7186C51.226 37.6042 50.7593 37.3828 50.1116 37.0552L49.9344 37.4938C50.5898 37.729 51.0143 37.884 51.2123 37.964C51.3283 38.0109 51.3317 38.1736 51.2209 38.448C51.1439 38.6608 51.0363 38.8613 50.9015 39.0431C50.7979 39.1691 50.7071 39.2147 50.6278 39.1826L49.4566 38.6765L49.2874 39.0953C50.0685 39.345 50.6034 39.5282 50.8892 39.6437C50.9825 39.6814 50.9661 39.8525 50.8426 40.1581C50.7554 40.3934 50.6415 40.6179 50.5031 40.8273C50.395 40.9646 50.312 41.0233 50.2385 40.9935Z" fill="black"/>
<path d="M54.7813 42.7798C54.502 42.6998 54.2271 42.6052 53.9577 42.4964C53.7834 42.4367 53.6173 42.3552 53.4633 42.2539C53.4017 42.2027 53.3809 42.1482 53.4038 42.0916L54.5401 39.2792L53.6319 38.9122C53.5838 38.8928 53.5665 38.8134 53.5817 38.678C53.6113 38.482 53.6674 38.291 53.7485 38.1102C53.836 37.8892 53.9514 37.6803 54.0918 37.4886C54.2205 37.3168 54.3278 37.2548 54.4155 37.2903L57.9523 38.7192C58.0174 38.7455 58.0375 38.826 58.0138 38.958C57.9694 39.1437 57.9093 39.3253 57.834 39.5008C57.7471 39.7215 57.6347 39.9312 57.4992 40.1258C57.3677 40.313 57.2614 40.3885 57.1794 40.3554L56.3617 40.025L55.2254 42.8374C55.2122 42.8782 55.0757 42.8658 54.7813 42.7798Z" fill="black"/>
<path d="M58.0965 44.1088C57.8181 44.036 57.5448 43.9453 57.278 43.8374C57.0998 43.7778 56.9315 43.6921 56.7785 43.5829C56.7501 43.5615 56.7293 43.5313 56.7194 43.4971C56.7095 43.4628 56.711 43.4262 56.7237 43.3929L58.3481 39.3723C58.3927 39.2619 58.56 39.2143 58.8416 39.2425C59.1435 39.2567 59.4407 39.3233 59.7198 39.4394C60.1357 39.6074 60.3023 39.7899 60.228 39.9738L59.6461 41.414L60.2261 41.6483L60.752 40.3468C60.7966 40.2364 60.9639 40.1889 61.2511 40.2193C61.554 40.2342 61.852 40.3011 62.1322 40.4173C62.5424 40.5831 62.7061 40.7644 62.6318 40.9483L60.9514 45.1076C60.9285 45.1642 60.7772 45.1557 60.4964 45.085C60.2181 45.012 59.9447 44.9213 59.6779 44.8136C59.5016 44.7547 59.3351 44.6697 59.1841 44.5614C59.1553 44.5399 59.1341 44.5098 59.1237 44.4753C59.1133 44.4409 59.1143 44.4041 59.1264 44.3702L59.7334 42.8678L59.1534 42.6335L58.5486 44.1302C58.5258 44.1868 58.3745 44.1784 58.0965 44.1088Z" fill="black"/>
<path d="M64.7153 46.843L61.9424 45.7227C61.7931 45.6726 61.653 45.5982 61.5278 45.5025C61.5001 45.4808 61.48 45.4507 61.4707 45.4167C61.4613 45.3827 61.4631 45.3466 61.4758 45.3136L63.1482 41.1742C63.1662 41.1221 63.1999 41.077 63.2447 41.045C63.2895 41.0129 63.3431 40.9956 63.3982 40.9954C63.605 41.0075 63.8074 41.0602 63.9938 41.1505L66.6223 42.2125C66.7129 42.2491 66.6964 42.4201 66.5741 42.7229C66.4868 42.9582 66.3729 43.1827 66.2346 43.3921C66.1338 43.5357 66.048 43.5932 65.983 43.5669C65.7 43.4526 65.2333 43.2311 64.5856 42.9036L64.4084 43.3421C65.0638 43.5773 65.4911 43.7335 65.6863 43.8124C65.8023 43.8592 65.8057 44.0219 65.6948 44.2963C65.6178 44.5092 65.5102 44.7096 65.3754 44.8914C65.2719 45.0174 65.181 45.063 65.1018 45.031L63.9305 44.5248L63.7613 44.9436C64.5387 45.1918 65.0736 45.375 65.366 45.4932C65.4565 45.5297 65.4401 45.7008 65.3166 46.0064C65.2294 46.2417 65.1155 46.4663 64.9771 46.6756C64.8633 46.8106 64.7804 46.8693 64.7153 46.843Z" fill="black"/>
<path d="M23.0638 38.5518C22.8139 38.4509 22.5341 38.4533 22.2861 38.5586C22.038 38.6639 21.8419 38.8635 21.7409 39.1134C21.8419 38.8635 21.8394 38.5837 21.7341 38.3356C21.6288 38.0875 21.4293 37.8915 21.1794 37.7905C21.4293 37.8915 21.709 37.889 21.9571 37.7837C22.2052 37.6784 22.4013 37.4789 22.5023 37.229C22.4013 37.4789 22.4037 37.7586 22.509 38.0067C22.6144 38.2548 22.8139 38.4509 23.0638 38.5518Z" fill="white"/>
<path d="M19.9701 43.4964C19.7202 43.3954 19.4405 43.3979 19.1924 43.5032C18.9443 43.6085 18.7482 43.808 18.6472 44.0579C18.7482 43.808 18.7458 43.5283 18.6405 43.2802C18.5351 43.0321 18.3356 42.836 18.0857 42.735C18.3362 42.8353 18.6162 42.8323 18.8644 42.7265C19.1125 42.6207 19.3087 42.4208 19.4097 42.1707C19.3087 42.4208 19.3109 42.7008 19.4159 42.9493C19.521 43.1978 19.7203 43.3946 19.9701 43.4964Z" fill="white"/>
<path d="M20.7529 47.989C20.6291 47.939 20.4968 47.9139 20.3633 47.9151C20.2299 47.9162 20.098 47.9437 19.9751 47.9958C19.8523 48.0479 19.7409 48.1238 19.6474 48.219C19.5539 48.3141 19.48 48.4268 19.43 48.5505C19.48 48.4268 19.5051 48.2944 19.504 48.161C19.5028 48.0276 19.4754 47.8957 19.4232 47.7728C19.3711 47.65 19.2952 47.5386 19.2001 47.4451C19.1049 47.3515 18.9922 47.2777 18.8685 47.2277C19.1184 47.3286 19.3981 47.3262 19.6462 47.2209C19.8943 47.1156 20.0904 46.916 20.1913 46.6661C20.0904 46.916 20.0928 47.1958 20.1981 47.4439C20.3034 47.692 20.503 47.8881 20.7529 47.989Z" fill="white"/>
<path d="M21.5987 54.5382C21.3488 54.4372 21.0691 54.4396 20.821 54.545C20.5729 54.6503 20.3768 54.8498 20.2758 55.0997C20.3762 54.8492 20.3731 54.5692 20.2673 54.321C20.1615 54.0729 19.9616 53.8767 19.7115 53.7757C19.9616 53.8767 20.2417 53.8745 20.4902 53.7695C20.7387 53.6644 20.9354 53.4651 21.0372 53.2153C20.9362 53.4652 20.9387 53.7449 21.044 53.993C21.1493 54.2411 21.3488 54.4372 21.5987 54.5382Z" fill="white"/>
<path d="M26.9537 56.7022C26.7038 56.6012 26.424 56.6036 26.1759 56.709C25.9279 56.8143 25.7318 57.0138 25.6308 57.2637C25.7318 57.0138 25.7293 56.734 25.624 56.486C25.5187 56.2379 25.3192 56.0418 25.0693 55.9408C25.3192 56.0418 25.5989 56.0393 25.847 55.934C26.0951 55.8287 26.2912 55.6292 26.3922 55.3793C26.2912 55.6292 26.2936 55.9089 26.3989 56.157C26.5042 56.4051 26.7038 56.6012 26.9537 56.7022Z" fill="white"/>
<path d="M28.1017 60.7533C27.8517 60.6532 27.5723 60.656 27.3244 60.7612C27.0766 60.8665 26.8804 61.0655 26.7788 61.3148C26.8792 61.0664 26.8774 60.7884 26.7738 60.5413C26.6703 60.2942 26.4733 60.098 26.2258 59.9954C26.4757 60.0963 26.7554 60.0939 27.0035 59.9886C27.2516 59.8833 27.4477 59.6837 27.5486 59.4339C27.4491 59.6823 27.4513 59.96 27.5548 60.2069C27.6583 60.4538 27.8547 60.6501 28.1017 60.7533Z" fill="white"/>
<path d="M33.9537 59.5301C33.7048 59.4338 33.428 59.4394 33.1831 59.5455C32.9382 59.6516 32.7449 59.8499 32.645 60.0973C32.7459 59.8474 32.7435 59.5677 32.6382 59.3196C32.5329 59.0715 32.3333 58.8754 32.0834 58.7745C32.3333 58.8754 32.6131 58.873 32.8612 58.7677C33.1093 58.6624 33.3054 58.4628 33.4063 58.2129C33.3063 58.4604 33.3077 58.7372 33.4101 58.9837C33.5125 59.2301 33.7078 59.4264 33.9537 59.5301Z" fill="white"/>
<path d="M36.1205 63.9931C35.8706 63.8922 35.5908 63.8946 35.3427 63.9999C35.0946 64.1052 34.8985 64.3048 34.7976 64.5547C34.8979 64.3042 34.8948 64.0242 34.789 63.776C34.6833 63.5278 34.4834 63.3317 34.2332 63.2306C34.4817 63.3302 34.7594 63.328 35.0063 63.2245C35.2532 63.121 35.4494 62.9246 35.5527 62.6776C35.4544 62.9274 35.4589 63.206 35.5653 63.4525C35.6716 63.6989 35.8712 63.8933 36.1205 63.9931Z" fill="white"/>
<path d="M41.9807 62.375C41.7305 62.274 41.4505 62.2762 41.202 62.3812C40.9535 62.4863 40.7568 62.6856 40.655 62.9354C40.705 62.8117 40.7301 62.6793 40.7289 62.5459C40.7278 62.4124 40.7003 62.2805 40.6482 62.1577C40.596 62.0348 40.5202 61.9235 40.425 61.8299C40.3299 61.7364 40.2172 61.6625 40.0934 61.6125C40.3433 61.7135 40.6231 61.711 40.8712 61.6057C41.1193 61.5004 41.3154 61.3009 41.4163 61.051C41.316 61.3015 41.3191 61.5815 41.4249 61.8296C41.5307 62.0778 41.7305 62.274 41.9807 62.375Z" fill="white"/>
<path d="M43.6977 67.0543C43.4478 66.9533 43.168 66.9558 42.92 67.0611C42.6719 67.1664 42.4758 67.3659 42.3748 67.6158C42.4758 67.3659 42.4733 67.0862 42.368 66.8381C42.2627 66.59 42.0632 66.3939 41.8133 66.2929C42.0632 66.3939 42.3429 66.3915 42.591 66.2862C42.8391 66.1808 43.0352 65.9813 43.1362 65.7314C43.0352 65.9813 43.0377 66.2611 43.143 66.5091C43.2483 66.7572 43.4478 66.9533 43.6977 67.0543Z" fill="white"/>
<path d="M50.8229 66.3456C50.5731 66.2447 50.2933 66.2471 50.0452 66.3524C49.7971 66.4577 49.601 66.6573 49.5001 66.9072C49.601 66.6573 49.5986 66.3775 49.4933 66.1294C49.388 65.8814 49.1884 65.6853 48.9385 65.5843C49.1884 65.6853 49.4682 65.6828 49.7163 65.5775C49.9644 65.4722 50.1605 65.2727 50.2614 65.0228C50.1605 65.2727 50.1629 65.5524 50.2682 65.8005C50.3735 66.0486 50.5731 66.2447 50.8229 66.3456Z" fill="white"/>
<path d="M56.3886 59.4611C56.2649 59.4111 56.1326 59.386 55.9991 59.3872C55.8657 59.3883 55.7338 59.4158 55.6109 59.4679C55.4881 59.5201 55.3767 59.5959 55.2832 59.6911C55.1896 59.7862 55.1158 59.8989 55.0658 60.0226C55.1158 59.8989 55.1409 59.7666 55.1397 59.6331C55.1386 59.4997 55.1111 59.3678 55.059 59.2449C55.0068 59.1221 54.931 59.0107 54.8358 58.9172C54.7407 58.8236 54.628 58.7498 54.5042 58.6998C54.7545 58.7983 55.0337 58.7936 55.2805 58.6866C55.5273 58.5796 55.7217 58.3792 55.8209 58.1292C55.7697 58.2538 55.7438 58.3873 55.7446 58.5221C55.7455 58.6568 55.7732 58.79 55.826 58.914C55.8788 59.0379 55.9558 59.1501 56.0524 59.2441C56.149 59.338 56.2633 59.4118 56.3886 59.4611Z" fill="white"/>
<path d="M57.2366 63.8253C56.9874 63.7281 56.71 63.733 56.4645 63.839C56.219 63.945 56.0252 64.1434 55.925 64.3914C55.975 64.2676 56.0001 64.1353 55.999 64.0018C55.9978 63.8684 55.9703 63.7365 55.9182 63.6136C55.8661 63.4908 55.7902 63.3794 55.6951 63.2859C55.5999 63.1924 55.4872 63.1185 55.3635 63.0685C55.4872 63.1185 55.6196 63.1436 55.753 63.1425C55.8865 63.1413 56.0184 63.1139 56.1412 63.0617C56.264 63.0096 56.3754 62.9337 56.4689 62.8386C56.5625 62.7434 56.6364 62.6307 56.6863 62.507C56.5862 62.7549 56.5877 63.0323 56.6907 63.2791C56.7937 63.5259 56.9898 63.7221 57.2366 63.8253Z" fill="white"/>
<path d="M62.0701 54.5747C61.8197 54.4744 61.5397 54.4775 61.2915 54.5833C61.0433 54.689 60.8472 54.8889 60.7461 55.1391C60.8472 54.8889 60.8449 54.6089 60.7399 54.3604C60.6349 54.1119 60.4356 53.9152 60.1857 53.8134C60.4356 53.9143 60.7154 53.9119 60.9635 53.8066C61.2116 53.7013 61.4076 53.5017 61.5086 53.2518C61.4076 53.5017 61.4101 53.7815 61.5154 54.0296C61.6207 54.2777 61.8202 54.4737 62.0701 54.5747Z" fill="white"/>
<path d="M57.3055 50.3C57.055 50.1996 56.775 50.2027 56.5268 50.3085C56.2787 50.4143 56.0825 50.6142 55.9815 50.8643C56.0825 50.6142 56.0803 50.3342 55.9753 50.0857C55.8702 49.8371 55.6709 49.6404 55.4211 49.5386C55.671 49.6396 55.9507 49.6371 56.1988 49.5318C56.4469 49.4265 56.643 49.227 56.744 48.9771C56.643 49.227 56.6454 49.5067 56.7507 49.7548C56.8561 50.0029 57.0556 50.199 57.3055 50.3Z" fill="white"/>
<path d="M53.0902 51.4703C52.8403 51.3694 52.5605 51.3718 52.3124 51.4771C52.0643 51.5824 51.8682 51.782 51.7673 52.0318C51.8173 51.9081 51.8424 51.7757 51.8412 51.6423C51.8401 51.5089 51.8126 51.3769 51.7605 51.2541C51.7084 51.1313 51.6325 51.0199 51.5373 50.9264C51.4422 50.8328 51.3295 50.759 51.2058 50.709C51.3295 50.759 51.4619 50.7841 51.5953 50.7829C51.7287 50.7818 51.8606 50.7543 51.9835 50.7022C52.1063 50.65 52.2177 50.5742 52.3112 50.479C52.4048 50.3838 52.4786 50.2712 52.5286 50.1474C52.4277 50.3973 52.4301 50.6771 52.5354 50.9252C52.6407 51.1733 52.8403 51.3694 53.0902 51.4703Z" fill="white"/>
<path d="M61.3481 59.1147C61.0976 59.0144 60.8176 59.0175 60.5694 59.1233C60.3213 59.2291 60.1251 59.4289 60.0241 59.6791C60.1251 59.4289 60.1229 59.1489 60.0179 58.9004C59.9128 58.6519 59.7135 58.4552 59.4637 58.3534C59.5874 58.4034 59.7198 58.4285 59.8532 58.4273C59.9867 58.4262 60.1186 58.3987 60.2414 58.3466C60.3643 58.2945 60.4756 58.2186 60.5692 58.1234C60.6627 58.0283 60.7366 57.9156 60.7866 57.7919C60.7366 57.9156 60.7114 58.048 60.7126 58.1814C60.7138 58.3148 60.7412 58.4468 60.7934 58.5696C60.8455 58.6924 60.9213 58.8038 61.0165 58.8973C61.1117 58.9909 61.2244 59.0647 61.3481 59.1147Z" fill="white"/>
<path d="M45.3528 46.5696C45.1029 46.4686 44.8232 46.4711 44.5751 46.5764C44.327 46.6817 44.1309 46.8812 44.0299 47.1311C44.1309 46.8812 44.1284 46.6015 44.0231 46.3534C43.9178 46.1053 43.7183 45.9092 43.4684 45.8082C43.7189 45.9085 43.9989 45.9055 44.247 45.7997C44.4952 45.6939 44.6914 45.494 44.7924 45.2439C44.6914 45.494 44.6936 45.774 44.7986 46.0225C44.9037 46.271 45.103 46.4678 45.3528 46.5696Z" fill="white"/>
<path d="M38.3191 45.5018C38.0694 45.4027 37.7905 45.4061 37.5433 45.5115C37.2961 45.6169 37.1005 45.8156 36.9991 46.0645C37.1001 45.8146 37.0976 45.5349 36.9923 45.2868C36.887 45.0387 36.6875 44.8426 36.4376 44.7416C36.6875 44.8426 36.9672 44.8402 37.2153 44.7348C37.4634 44.6295 37.6595 44.43 37.7604 44.1801C37.6605 44.4296 37.6631 44.7084 37.7678 44.9559C37.8724 45.2035 38.0706 45.3997 38.3191 45.5018Z" fill="white"/>
<path d="M31.9324 41.1474C31.6825 41.0465 31.4028 41.0489 31.1547 41.1542C30.9066 41.2595 30.7105 41.4591 30.6095 41.709C30.7099 41.4585 30.7068 41.1785 30.601 40.9303C30.4952 40.6821 30.2953 40.486 30.0452 40.385C30.2959 40.4854 30.5762 40.4825 30.8248 40.377C31.0734 40.2715 31.2701 40.0718 31.372 39.8217C31.271 40.0719 31.2732 40.3519 31.3782 40.6004C31.4833 40.8489 31.6826 41.0456 31.9324 41.1474Z" fill="white"/>
<path d="M28.2371 41.738C27.9872 41.6371 27.7075 41.6395 27.4594 41.7448C27.2113 41.8501 27.0152 42.0497 26.9143 42.2996C27.0152 42.0497 27.0128 41.7699 26.9075 41.5218C26.8022 41.2737 26.6026 41.0776 26.3527 40.9767C26.6026 41.0776 26.8824 41.0752 27.1305 40.9699C27.3785 40.8646 27.5746 40.665 27.6756 40.4152C27.5746 40.665 27.5771 40.9448 27.6824 41.1929C27.7877 41.441 27.9872 41.6371 28.2371 41.738Z" fill="white"/>
<path d="M19.3841 39.5233C19.1342 39.4223 18.8545 39.4248 18.6064 39.5301C18.3583 39.6354 18.1622 39.8349 18.0612 40.0848C18.1622 39.8349 18.1597 39.5552 18.0544 39.3071C17.9491 39.059 17.7496 38.8629 17.4997 38.7619C17.7496 38.8629 18.0293 38.8605 18.2774 38.7552C18.5255 38.6498 18.7216 38.4503 18.8226 38.2004C18.7216 38.4503 18.7241 38.7301 18.8294 38.9781C18.9347 39.2262 19.1342 39.4223 19.3841 39.5233Z" fill="white"/>
</svg>
