<svg width="1024" height="1024" viewBox="0 0 1024 1024" fill="none" xmlns="http://www.w3.org/2000/svg">
<rect width="1024" height="1024" fill="white"/>
<path d="M642.957 809.09C642.158 808.452 641.638 808.034 641.139 807.593C633.577 800.913 633.382 800.646 625.192 806.697C603.333 822.847 579.06 833.449 552.449 838.545C526.838 843.449 501.649 842.468 476.276 835.091C451.489 827.884 429.713 815.669 409.72 800.077C396.81 790.009 385.493 778.124 375.068 765.301C362.49 749.829 352.085 733.106 342.874 715.553C333.985 698.614 327.428 680.705 322.042 662.405C316.417 643.299 312.358 623.879 310.461 603.96C308.873 587.284 307.275 570.652 307.583 553.884C307.594 553.284 307.316 552.678 307.115 551.837C304.042 552.63 303.437 555.695 301.156 557.084C290.706 563.447 279.767 564.201 268.671 559.822C264.478 558.168 263.158 559.479 262.366 562.951C257.706 583.361 262.407 601.759 274.7 618.359C281.468 627.498 289.75 635.044 299.814 640.511C303.302 642.405 303.128 645.326 302.394 648.696C301.644 652.135 299.254 651.998 296.696 652.102C294.258 652.2 292.075 651.477 290.036 650.299C267.173 637.097 251.532 618.133 245.685 592.187C242.629 578.629 242.802 564.788 248.33 551.562C249.593 548.541 249.501 545.892 247.337 543.25C243.314 538.341 240.564 532.722 238.844 526.629C238.369 524.947 237.716 523.421 236.3 522.469C231.621 519.322 226.855 516.303 222.151 513.192C220.659 512.206 219.556 512.129 217.694 513.001C205.706 518.617 193.47 519.228 180.538 515.71C162.406 510.777 152.815 498.21 150.099 480.992C146.575 458.66 157.661 441.999 179.708 434.889C186.65 432.65 193.607 430.277 201.105 430.397C202.603 430.421 204.119 429.342 206.147 428.576C203.097 425.193 200.241 422.268 197.657 419.118C186.489 405.501 179.82 390.08 178.589 372.335C177.707 359.618 178.844 347.208 182.651 335.046C186.254 323.532 202.352 310.038 214.316 309.845C224.86 309.675 234.404 313.178 242.315 320.882C246.383 324.843 248.862 329.958 253.172 334.413C256.306 329.001 258.95 323.858 262.123 319.067C271.885 304.33 286.09 298.025 303.378 298.633C308.854 298.825 314.004 300.974 318.029 305.246C319.543 306.853 321.466 309.266 324.419 306.357C321.356 302.689 316.751 301.678 313.291 298.852C300.77 288.62 296.438 274.963 295.779 259.666C295.581 255.077 294.917 250.345 296.719 245.812C298.709 240.807 300.498 240.398 303.964 244.361C306.817 247.623 309.321 251.126 311.306 255C316.891 265.894 324.414 269.098 336.385 266.005C348.785 262.801 357.636 255.149 364.514 244.634C373.298 231.205 384.243 219.736 396.497 209.359C407.174 200.317 418.931 193.301 432.091 188.843C440.021 186.156 448.422 186.292 456.784 185.711C467.195 184.986 476.538 187.598 485.957 190.201C496.976 193.245 507.611 197.694 516.998 204.57C519.756 206.59 522.439 206.984 525.659 204.855C533.928 199.388 542.203 193.917 551.943 191.134C560.756 188.616 569.34 187.925 578.554 189.708C593.493 192.598 604.115 200.997 612.627 212.905C618.541 221.179 622.714 230.373 626.202 239.832C627.983 244.663 630.08 246.046 635.374 244.669C655.414 239.455 675.604 238.595 696.02 243.216C722.877 249.295 744.531 263.578 762.037 284.341C777.909 303.168 788.685 324.803 794.664 348.665C797.442 359.756 797.512 371.26 798.322 382.649C799.028 392.58 800.909 402.425 802.169 412.321C803.526 422.984 809.444 431.159 816.699 438.423C825.822 447.557 838.719 441.425 844.736 434.249C848.561 429.688 849.647 429.571 852.759 434.773C855.169 438.802 855.076 443.25 853.643 447.343C847.323 465.383 835.953 477.858 815.925 480.374C812.898 480.754 810.331 481.754 813.035 485.439C824.067 500.471 827.029 518.266 830.146 535.938C833.084 552.587 829.987 569.001 827.976 585.531C826.443 598.131 825.183 611.007 828.374 623.663C830.614 632.544 835.317 640.072 841.779 646.471C849.724 654.339 861.206 654.613 869.681 647.332C871.695 645.602 873.641 643.731 875.871 642.325C880.561 639.37 883.171 640.721 884.027 646.332C885.005 652.743 883.488 658.554 879.665 663.764C866.95 681.095 850.845 692.57 828.531 693.235C822.64 693.41 816.927 692.374 811.388 690.395C805.684 688.357 804.472 689.26 805.73 695.405C807.966 706.324 806.569 716.814 803.144 727.287C796.821 746.621 783.69 760.107 766.925 770.708C759.482 775.415 751.547 778.575 742.847 779.868C740.679 780.19 738.542 780.282 736.411 779.68C728.404 777.418 727.346 773.408 733.035 767.442C739.142 761.037 743.429 753.681 744.405 744.126C741.083 744.939 739.187 747.354 737.039 749.131C729.189 755.623 720.541 760.807 711.741 765.88C701.014 772.064 690.612 778.775 687.862 792.393C686.914 797.085 688.169 800.453 691.893 803.282C694.124 804.977 696.692 806.299 698.291 808.788C700.467 812.176 699.611 814.597 696.333 816.695C682.367 825.633 668.488 823.08 654.606 816.538C650.513 814.609 646.842 812.01 642.957 809.09ZM490.81 407.604C486.105 417.831 479.753 427.038 472.204 435.264C453.783 455.335 433.053 470.131 403.508 463.232C390.52 460.199 379.718 453.086 369.289 445.312C366.502 443.234 367.328 440.133 370.456 439.239C372.058 438.78 373.701 438.814 375.376 439.302C382.732 441.448 388.68 438.946 393.849 433.684C404.786 422.552 404.268 404.126 399.477 391.568C399.3 391.104 398.451 390.896 398.071 390.663C396.736 391.177 396.422 392.131 396.043 393.063C392.187 402.548 386.703 410.932 380.113 418.818C375.24 424.649 368.621 428.827 365.064 435.947C361.852 442.374 357.231 448.224 351.27 452.153C344.225 456.797 341.518 463.488 339.224 470.9C335.246 483.756 335.867 496.902 336.756 509.994C337.004 513.649 335.745 517.899 338.5 521.077C340.942 523.894 339.512 525.426 337.34 527.184C333.077 530.633 328.552 528.689 324.108 527.68C323.229 529.826 323.268 531.805 323.106 533.78C322.113 545.882 322.411 558.014 322.161 570.133C321.802 587.492 323.763 604.717 326.856 621.703C329.795 637.839 333.982 653.725 339.199 669.381C346.865 692.387 357.37 714.006 370.364 734.262C381.484 751.597 395.229 767.004 410.617 780.873C428.164 796.687 448.152 808.637 470.348 816.062C495.075 824.334 520.602 825.902 546.574 821.271C570.512 817.002 591.511 806.604 611.165 792.971C630.555 779.521 646.343 762.508 660.173 743.434C672.304 726.701 681.79 708.566 690.096 689.792C692.203 685.029 694.36 680.145 695.854 675.086C698.581 665.852 701.195 656.584 703.866 647.334C704.237 646.049 704.58 644.499 706.059 644.23C713.343 642.905 718.656 637.702 725.006 634.553C733.608 630.287 741.589 624.643 748.872 618.39C756.914 611.483 763.429 603.1 768.045 593.397C771.789 585.529 773.313 576.893 774.038 568.544C774.847 559.227 772.761 549.686 767.657 541.37C761.183 530.821 754.011 521.071 741.741 516.292C728.602 511.175 715.773 512.384 702.927 516.955C700.109 517.957 697.362 519.804 694.337 519.025C690.902 518.14 688.661 519.766 686.228 521.56C681.662 524.926 676.993 527.997 671.27 529.301C667.61 530.135 666.289 528.617 665.885 525.486C665.624 523.454 666.241 521.593 667.219 519.756C670.343 513.892 673.392 507.984 676.335 502.027C677.073 500.536 678.507 498.932 676.991 497.014C674.466 496.891 673.18 498.9 671.417 500.04C661.785 506.27 651.871 511.428 639.748 509.323C629.939 507.621 627.803 503.022 633.289 494.846C634.306 493.33 635.464 491.901 636.633 490.496C645.092 480.324 651.878 469.179 655.082 456.266C655.934 452.835 658.041 448.955 655.238 444.224C651.229 453.417 645.143 459.932 638.028 465.459C627.855 473.359 616.384 478.408 603.545 480.107C600.237 480.545 598.559 478.811 599.466 475.706C600.659 471.617 601.938 467.644 605.572 464.561C613.008 458.252 615.495 449.414 614.406 440.207C613.228 430.244 609.434 420.85 603.482 412.627C592.384 397.298 577.308 386.82 560.717 378.271C557.29 376.505 556.46 378.67 556.413 381.322C556.318 386.669 557.117 391.923 558.824 397.012C563.147 409.906 570.656 420.805 580.241 430.262C582.765 432.752 585.093 435.866 588.932 436.7C594.72 437.958 595.063 438.976 592.058 444.033C590.11 447.312 587.299 449.15 583.777 449.92C578.903 450.987 574.006 452.163 569.056 452.632C555.661 453.902 542.217 453.71 529.998 447.367C513.713 438.913 501.293 426.595 495.043 408.822C494.502 407.284 494.044 404.094 490.81 407.604ZM357.713 394.754C357.43 393.288 357.234 391.799 356.851 390.36C352.844 375.295 341.972 365.687 324.785 373.478C309.855 380.244 298.519 391.322 287.698 403.109C285.697 405.288 283.774 406.83 280.842 405.105C277.923 403.387 278.113 400.928 279.273 398.167C281.102 393.814 283.716 390.04 286.842 386.506C295.278 376.967 305.362 368.91 311.554 357.348C317.673 345.923 319.168 334.435 313.737 322.582C311.736 318.215 308.519 314.427 303.091 313.726C292.439 312.35 283.349 317.081 276.406 323.721C266.631 333.068 261.364 345.236 260.964 359.352C260.648 370.541 263.531 381.105 265.704 391.821C266.46 395.545 264.792 397.198 262.077 398.441C259.186 399.766 257.847 397.531 256.609 395.505C251.502 387.15 248.198 377.848 247.422 368.364C246.418 356.071 240.356 346.515 233.767 337.112C231.217 333.472 227.62 330.069 223.282 328.148C212.524 323.384 201.01 329.046 196.759 341.119C193.358 350.782 192.466 360.733 193.013 370.948C194.027 389.873 202.438 405.313 215.343 418.489C220.231 423.479 225.516 427.979 229.012 434.187C230.515 436.857 230 438.365 227.186 438.886C223.752 439.521 220.249 439.863 216.742 439.441C202.754 437.758 190.493 442.838 178.881 449.635C172.257 453.512 167.167 459.387 165.727 467.119C163.549 478.808 166.908 492.35 180.57 500.432C188.909 505.365 207.639 505.669 216.646 498.373C227.731 489.393 237.56 479.452 245.573 467.68C246.925 465.694 248.767 463.38 251.19 465.036C253.528 466.634 255.928 469.212 254.726 472.605C252.595 478.62 251.641 484.872 250.818 491.111C247.921 513.079 252.259 534.26 274.001 545.959C280.367 549.385 290.255 549.729 294.766 545.413C300.356 540.064 304.986 533.944 305.857 525.827C307.193 513.369 304.661 501.295 301.453 489.453C298.125 477.167 292.135 466.007 284.317 455.916C282.576 453.669 283.025 451.861 284.195 449.541C285.327 447.298 286.668 446.045 289.172 446.377C292.623 446.833 296.197 446.275 299.543 447.539C307.192 450.426 315.024 450.226 323.001 449.376C333.793 448.227 342.053 442.589 348.471 434.511C357.497 423.153 360.677 410.026 357.713 394.754Z" fill="black"/>
<path d="M395.827 583.835C393.912 588.27 388.673 591.494 385.486 589.749C381.899 587.784 381.242 584.258 382.413 580.243C386.83 565.082 396.253 553.589 408.574 544.218C419.119 536.2 431.257 531.894 444.081 529.179C448.781 528.184 453.409 528.876 457.918 529.751C461.347 530.417 464.44 532.386 465.355 536.342C466.269 540.297 470.513 541.825 471.547 546.234C473.947 556.464 473.665 566.443 471.507 576.51C470.883 579.421 469.734 582.228 468.723 585.045C466.802 590.405 461.562 594.772 457.184 594.758C451.775 594.741 444.992 589.538 442.814 584.579C437.985 573.578 438.981 562.585 442.103 551.484C442.59 549.754 443.344 548.064 442.779 545.539C421.129 550.965 405.486 563.37 395.827 583.835Z" fill="black"/>
<path d="M624.959 563.521C623.594 569.617 622.63 575.282 619.002 580.209C615.352 585.168 610.707 589.096 604.851 587.106C598.621 584.988 593.713 580.341 591.728 573.229C589.02 563.521 590.314 553.995 592.259 544.137C585.878 543.278 580.6 545.938 575.594 548.593C563.059 555.241 553.378 564.723 547.804 578.099C545.79 582.931 542.775 583.977 538.176 582.103C533.838 580.335 533.348 576.784 534.762 573.004C545.791 543.529 573.912 521.315 607.92 528.081C613.836 529.258 618.444 533.044 620.931 538.785C624.285 546.527 626.028 554.583 624.959 563.521Z" fill="black"/>
<path d="M479.671 583.748C483.807 571.666 485.71 559.487 487.692 547.346C488.364 543.228 488.723 539.624 494.378 540.647C497.71 541.249 500.374 544.991 499.846 549.359C499.088 555.631 498.336 561.922 497.134 568.117C493.738 585.616 488.695 602.53 481.54 618.995C474.775 634.566 477.619 648.28 491.121 657.434C493.112 658.783 495.286 659.907 497.61 659.724C502.361 659.352 505.695 662.328 509.464 664.239C511.985 665.517 511.31 667.91 510.737 670.005C509.783 673.49 507.129 674.75 503.837 674.42C496.635 673.697 490.012 671.31 483.785 667.514C467.568 657.628 464.808 642.19 465.871 625.082C466.515 614.711 471.284 605.68 475.156 596.344C476.813 592.35 478.12 588.21 479.671 583.748Z" fill="black"/>
<path d="M523.335 738.551C514.144 742.238 505.049 744.684 495.493 745.236C491.274 745.48 488.261 744.209 487.795 739.519C487.34 734.943 490.158 733.516 494.057 732.893C514.778 729.581 532.655 721.192 545.687 704.032C548.09 700.868 551.457 700.043 554.92 702.577C558.064 704.878 557.94 709.911 555.036 713.798C547.325 724.118 537.759 732.099 525.912 737.273C525.151 737.605 524.425 738.016 523.335 738.551Z" fill="black"/>
<path d="M236.654 397.352C243.8 407.788 253.137 415.053 264.06 420.459C266.436 421.635 268.632 423.166 270.97 424.424C274.482 426.314 276.224 429.282 275.153 433.057C273.919 437.406 269.237 439.659 264.831 438.685C252.677 435.998 243.73 428.167 235.905 419.336C225.719 407.839 219.402 394.077 216.339 378.997C215.527 375.003 214.413 370.475 219.583 366.335C224.546 377.393 229.317 387.925 236.654 397.352Z" fill="black"/>
<path d="M199.297 371.399C199.889 367.436 201.831 365.188 205.504 364.889C209.034 364.601 210.953 366.985 212.365 369.732C214.538 373.962 215.864 378.382 214.231 383.16C213.422 385.525 211.83 387.276 209.348 387.678C206.859 388.081 204.839 386.86 203.343 384.871C200.432 381 199.386 376.529 199.297 371.399Z" fill="black"/>
<path d="M239.433 367.728C240.073 370.291 239.715 372.438 238.979 374.468C238.072 376.968 236.231 378.602 233.545 379.049C230.787 379.508 228.541 378.373 227.14 376.123C225.016 372.712 223.585 368.999 223.85 364.844C224.083 361.203 225.553 358.296 229.302 357.416C232.79 356.597 234.872 359.088 236.566 361.569C237.759 363.316 238.45 365.406 239.433 367.728Z" fill="black"/>
<path d="M207.337 351.469C207.055 344.174 209.083 340.235 213.021 339.89C216.816 339.558 220.464 343.442 221.873 349.28C222.35 351.256 222.4 353.243 222.049 355.226C221.438 358.673 219.575 361.035 215.98 361.609C212.37 362.186 210.395 359.904 209.018 357.096C208.226 355.48 207.928 353.621 207.337 351.469Z" fill="black"/>
</svg>
