<svg width="19" height="20" viewBox="0 0 19 20" fill="none" xmlns="http://www.w3.org/2000/svg">
<path fill-rule="evenodd" clip-rule="evenodd" d="M2.02142 17.3408L11.6031 19.9071C11.9492 19.9998 12.3101 20.0234 12.6653 19.9766C13.0205 19.9298 13.363 19.8135 13.6732 19.6344C13.9835 19.4552 14.2554 19.2167 14.4735 18.9324C14.6915 18.6482 14.8515 18.3237 14.9441 17.9777L18.1542 6.00031C18.3415 5.30154 18.2435 4.557 17.8819 3.93045C17.5202 3.3039 16.9245 2.84665 16.2258 2.65928L6.64313 0.092985C5.94435 -0.0942765 5.19981 0.0036876 4.57326 0.365331C3.94671 0.726974 3.48946 1.32268 3.30209 2.02142L0.0929848 13.9998C-0.0942767 14.6985 0.00368796 15.4431 0.365331 16.0696C0.726975 16.6962 1.32268 17.1534 2.02142 17.3408ZM6.58857 3.98756C6.68542 3.97476 6.78385 3.98116 6.87823 4.0064L6.87724 4.00839L14.0632 5.93286C14.2368 5.9702 14.3912 6.06843 14.4986 6.20977C14.6059 6.3511 14.6592 6.52621 14.6486 6.7034C14.6381 6.88058 14.5644 7.04813 14.4411 7.17573C14.3177 7.30333 14.1527 7.38254 13.976 7.39903C13.8761 7.40922 13.7752 7.39909 13.6793 7.36927L6.49234 5.4448C6.32492 5.40112 6.17796 5.30045 6.07675 5.16012C5.97553 5.01978 5.9264 4.84856 5.93779 4.67591C5.94918 4.50326 6.02039 4.33998 6.13917 4.21417C6.25794 4.08835 6.41686 4.00886 6.58857 3.98756ZM5.49142 7.20658C5.65751 7.10739 5.85569 7.07679 6.04396 7.12127L13.23 9.04574C13.4207 9.09678 13.5834 9.2215 13.6822 9.39247C13.7809 9.56343 13.8078 9.76664 13.7567 9.95738C13.7057 10.1481 13.581 10.3108 13.41 10.4096C13.239 10.5083 13.0358 10.5352 12.8451 10.4841L5.65808 8.55768C5.51997 8.51603 5.39694 8.43514 5.30398 8.32484C5.21101 8.21455 5.15212 8.0796 5.13446 7.93644C5.1168 7.79327 5.14114 7.64806 5.20451 7.51848C5.26789 7.3889 5.36757 7.28053 5.49142 7.20658ZM4.64426 10.3095C4.51681 10.3831 4.41405 10.4928 4.34897 10.6248C4.28388 10.7568 4.25941 10.9051 4.27862 11.051C4.29784 11.1969 4.3599 11.3339 4.45694 11.4445C4.55399 11.5551 4.68166 11.6345 4.82381 11.6725L9.61514 12.9562C9.70952 12.9815 9.80796 12.9879 9.90483 12.9751C10.0017 12.9624 10.0951 12.9306 10.1797 12.8818C10.2643 12.8329 10.3385 12.7678 10.3979 12.6903C10.4574 12.6128 10.501 12.5243 10.5263 12.4299C10.5516 12.3355 10.558 12.2371 10.5452 12.1402C10.5325 12.0434 10.5007 11.95 10.4519 11.8654C10.403 11.7808 10.3379 11.7066 10.2604 11.6471C10.1829 11.5877 10.0944 11.5441 10 11.5188L5.2087 10.2351C5.01813 10.1841 4.8151 10.2109 4.64426 10.3095Z" fill="#EEEEEE"/>
</svg>
