<?xml version="1.0" encoding="iso-8859-1"?>
<!-- Uploaded to: SVG Repo, www.svgrepo.com, Generator: SVG Repo Mixer Tools -->
<!DOCTYPE svg PUBLIC "-//W3C//DTD SVG 1.1//EN" "http://www.w3.org/Graphics/SVG/1.1/DTD/svg11.dtd">
<svg fill="#000000" version="1.1" id="Capa_1" xmlns="http://www.w3.org/2000/svg" xmlns:xlink="http://www.w3.org/1999/xlink" 
	 width="800px" height="800px" viewBox="0 0 464.513 464.513"
	 xml:space="preserve">
<g>
	<g>
		<path d="M64.471,260.673c-32.16,32.261-53.755,75.974-18.683,117.639c38.788,46.085,86.166,49.572,127.2,18.294
			c17.224,36.267,45.965,69.941,90.74,57.222c47.132-13.385,66.099-48.666,65.226-90.335c33.485,10.074,66.575,7.361,96.743-18.458
			c37.954-32.477,21.388-77.616-3.158-111.84c41.91-25.343,56.97-62.54,24.117-112.434c-30.89-46.913-81.323-49.842-126.839-32.895
			c0.212-42.455-22.671-72.418-75.172-79.195c-26.455-3.415-54.683,5.512-76.343,20.186c-20.676,14.01-25.583,35.726-25.576,58.192
			c-50.667-13.636-97.823,2.883-130.49,51.437C-22.005,189.41,22.141,233.443,64.471,260.673z M85.316,122.556
			c22.556-9.466,47.636-1.465,68.221,8.658c16.508,8.119,31.5-8.468,28.511-21.792c-3.32-39.281,13.589-61.215,53.349-63.093
			c47.336-2.236,52.121,31.929,42.515,69.116c-4.071,15.797,13.401,30.42,27.944,21.478c34.355-21.125,71.48-33.644,104.04-1.493
			c13.979,13.804,27.884,42.427,6.088,58.981c-9.414,7.153-21.637,11.393-32.328,16.166c-11.798,5.257-11.293,21.608-3.851,29.864
			c19.175,21.267,43.769,48.076,19.015,77.707c-21.552,25.796-59.723,11.221-83.45-1.073c-14.764-7.658-32.136,4.793-27.937,21.472
			c8.793,34.929,5.703,73.544-38.815,79.219c-29.743,3.779-42.996-37.866-50.021-58.901c-4.256-12.735-21.738-19.696-31.785-8.388
			c-25.672,28.874-53.289,40.203-85.312,11.409c-35.508-31.931-2.196-67.457,24.673-88.043c10.562-8.095,13.904-25.436,0-32.841
			c-25.269-13.463-64.145-31.511-67.064-64.073C36.972,153.132,66.515,130.449,85.316,122.556z"/>
		<path d="M234.63,161.316c39.181,0,70.939,31.763,70.939,70.938c0,39.185-31.759,70.943-70.939,70.943
			c-39.183,0-70.943-31.759-70.943-70.943C163.687,193.079,195.448,161.316,234.63,161.316z"/>
	</g>
</g>
</svg>