<svg width="21" height="20" viewBox="0 0 21 20" fill="none" xmlns="http://www.w3.org/2000/svg">
<path d="M8.20513 0H12.3077C14.4838 0 16.5708 0.864467 18.1096 2.40323C19.6484 3.94199 20.5128 6.02899 20.5128 8.20513C20.5128 10.3813 19.6484 12.4683 18.1096 14.007C16.5708 15.5458 14.4838 16.4103 12.3077 16.4103V20C7.17949 17.9487 0 14.8718 0 8.20513C0 6.02899 0.864467 3.94199 2.40323 2.40323C3.94199 0.864467 6.02899 0 8.20513 0ZM10.2564 14.359H12.3077C13.9398 14.359 15.505 13.7106 16.6591 12.5566C17.8132 11.4025 18.4615 9.83723 18.4615 8.20513C18.4615 6.57303 17.8132 5.00777 16.6591 3.8537C15.505 2.69963 13.9398 2.05128 12.3077 2.05128H8.20513C6.57303 2.05128 5.00777 2.69963 3.8537 3.8537C2.69963 5.00777 2.05128 6.57303 2.05128 8.20513C2.05128 11.9077 4.57641 14.3241 10.2564 16.9026V14.359Z" fill="#ECECEC"/>
<path d="M10.2564 14.359H12.3077C13.9398 14.359 15.505 13.7106 16.6591 12.5566C17.8132 11.4025 18.4615 9.83723 18.4615 8.20513C18.4615 6.57303 17.8132 5.00777 16.6591 3.8537C15.505 2.69963 13.9398 2.05128 12.3077 2.05128H8.20513C6.57303 2.05128 5.00777 2.69963 3.8537 3.8537C2.69963 5.00777 2.05128 6.57303 2.05128 8.20513C2.05128 11.9077 4.57641 14.3241 10.2564 16.9026V14.359Z" fill="#ECECEC"/>
</svg>
