<?xml version="1.0" encoding="iso-8859-1"?>
<!-- Uploaded to: SVG Repo, www.svgrepo.com, Generator: SVG Repo Mixer Tools -->
<!DOCTYPE svg PUBLIC "-//W3C//DTD SVG 1.1//EN" "http://www.w3.org/Graphics/SVG/1.1/DTD/svg11.dtd">
<svg fill="#000000" version="1.1" id="Capa_1" xmlns="http://www.w3.org/2000/svg" xmlns:xlink="http://www.w3.org/1999/xlink" 
	 width="800px" height="800px" viewBox="0 0 546.737 546.737"
	 xml:space="preserve">
<g>
	<g>
		<path d="M516.667,88.238c-78.336-101.592-201.96-44.064-253.98,46.512C218.623,31.322,72.355-6.622,16.663,120.062
			c-50.796,116.28,22.032,232.56,117.504,306c0.612,5.508,3.06,11.016,4.896,15.912c4.896,11.016,9.18,23.256,15.3,34.271
			c5.508,9.792,19.584,3.061,17.136-7.344c-1.224-7.344-4.284-14.076-6.12-20.809c9.18,6.12,18.972,11.629,28.764,17.137
			c-0.612,4.283,0.612,9.18,4.284,12.852c9.18,9.18,16.524,20.196,24.48,29.988c9.18,11.628,26.928-3.061,20.196-15.3
			c-1.836-3.672-3.672-6.732-6.12-10.404c1.224-0.612,2.448-1.224,3.672-2.448c10.404-1.224,20.196-3.672,29.988-5.508
			c5.507-1.224,8.568-4.284,10.404-8.568c4.896-11.016-1.225-26.928-15.3-25.703c-17.748,1.836-36.72,4.896-53.856,9.18
			c-9.18-5.508-17.748-11.017-26.316-17.136c6.12,0,11.628,0,17.748-2.448c10.404-3.672,9.792-17.137,0-20.809
			c-11.628-4.283-24.48-2.447-36.72-2.447c-4.896,0-10.404,0-15.3,0.611c-50.184-38.556-91.8-85.067-111.996-148.104
			c-18.36-54.468-17.136-120.564,26.928-162.18c74.052-70.38,168.912-3.06,178.704,84.456c1.836,15.912,25.092,22.032,29.988,4.284
			c15.912-58.752,59.364-115.668,125.46-118.728c73.44-3.672,117.504,54.468,110.772,125.46
			c-9.792,96.696-86.904,184.824-160.956,245.412c0-7.956,0-15.912-1.225-24.48c-1.224-9.18-12.852-11.016-15.911-2.448
			c-6.732,18.36-10.404,36.108-14.688,55.08c-0.612,2.448-1.224,5.509-1.224,7.956c-2.448,11.017,4.283,18.973,15.3,20.196
			c17.748,1.836,48.348,6.732,62.424-6.732c6.732-6.731,4.284-16.523-2.448-21.42c-8.567-6.119-17.748-4.283-27.54-4.283
			C462.199,385.059,610.915,210.026,516.667,88.238z"/>
		<path d="M465.259,115.778c-79.56-68.544-171.36,47.124-215.424,126.684C199.039,174.53,94.387,56.414,68.683,166.574
			c-20.196,85.68,97.92,216.648,179.928,242.964h0.612c4.896,1.836,9.792,3.061,14.688,3.672c5.508,0.612,11.628-3.672,10.404-9.18
			C332.455,359.354,568.687,205.13,465.259,115.778z"/>
	</g>
</g>
</svg>