<svg width="20" height="20" viewBox="0 0 20 20" fill="none" xmlns="http://www.w3.org/2000/svg">
<path fill-rule="evenodd" clip-rule="evenodd" d="M0.5192 5.82274C5.96046e-08 6.77128 0 7.91549 0 10.2039V11.725C0 15.6258 1.19209e-07 17.5763 1.17157 18.7881C2.34315 20 4.22876 20 8 20H12C15.7712 20 17.6569 20 18.8284 18.7881C20 17.5763 20 15.6258 20 11.725V10.2039C20 7.91549 20 6.77128 19.4808 5.82274C18.9616 4.87421 18.0131 4.28551 16.116 3.10812L14.116 1.86687C12.1106 0.62229 11.1079 0 10 0C8.8921 0 7.88939 0.62229 5.88403 1.86687L3.88403 3.10813C1.98695 4.28551 1.0384 4.87421 0.5192 5.82274ZM7.44661 13.3975C7.11385 13.1508 6.64413 13.2206 6.39747 13.5534C6.15082 13.8862 6.22062 14.3559 6.55339 14.6025C7.5258 15.3233 8.715 15.75 10 15.75C11.285 15.75 12.4742 15.3233 13.4466 14.6025C13.7794 14.3559 13.8492 13.8862 13.6025 13.5534C13.3559 13.2206 12.8862 13.1508 12.5534 13.3975C11.825 13.9373 10.9459 14.25 10 14.25C9.0541 14.25 8.175 13.9373 7.44661 13.3975Z" fill="#ECECEC"/>
</svg>
