<?xml version="1.0" encoding="iso-8859-1"?>
<!-- Uploaded to: SVG Repo, www.svgrepo.com, Generator: SVG Repo Mixer Tools -->
<!DOCTYPE svg PUBLIC "-//W3C//DTD SVG 1.1//EN" "http://www.w3.org/Graphics/SVG/1.1/DTD/svg11.dtd">
<svg fill="#000000" version="1.1" id="Capa_1" xmlns="http://www.w3.org/2000/svg" xmlns:xlink="http://www.w3.org/1999/xlink" 
	 width="800px" height="800px" viewBox="0 0 191.362 191.361"
	 xml:space="preserve">
<g>
	<path d="M115.85,6.733C99.592,9.008,89.945,19.407,86.344,32.581c-0.188-0.037-0.342-0.12-0.552-0.128
		c-1.55-0.061-3.109-0.056-4.668-0.048c-1.407-5.832-3.036-11.568-5.059-17.103C64.398-16.606,41.613,8.468,31.387,26.642
		c-3.086,5.484,5.294,10.376,8.418,4.92c4.751-8.298,17.263-32.756,26.256-15.618c2.633,5.015,4.239,10.81,5.354,16.761
		c-3.221,0.163-6.438,0.345-9.63,0.458c-3.204,0.113-3.204,4.858,0,4.971c3.509,0.124,7.048,0.333,10.59,0.508
		c0.275,1.968,0.524,3.933,0.745,5.869c-4.431-1.517-8.584-3.655-12.344-6.504c-0.582-0.44-1.156-0.52-1.665-0.38
		c-0.037-1.748-2.899-2.014-3.34-0.25c-6.737,26.908-9.853,54.603-9.441,82.315c0.209,14.102-1.434,52.595,13.827,60.604
		c0.297,0.156,0.609,0.25,0.926,0.312c23.718,22.947,56.312,5.87,69.512-20.298c8.542-16.935,6.084-39.968,4.835-58.133
		c-0.419-6.092-0.712-12.381-1.025-18.723c0.175-0.023,0.345-0.032,0.526-0.078C181.574,71.709,158.427,0.775,115.85,6.733z
		 M121.804,71.061c-4.646-0.392-10.499-1.766-12.65-5.413c-0.945-1.603,0.924-3.556,1.917-4.562
		c2.666-2.701,7.738-3.399,9.242-6.934c0.562-1.321,0.108-2.495-1.235-3.035c-0.068-0.027-0.145-0.021-0.213-0.045
		c0.796-0.121,1.591-0.253,2.369-0.429c0.65-0.148,1.037-0.552,1.237-1.034C121.413,56.41,121.35,63.654,121.804,71.061z
		 M104.851,41.419c-3.28-3.587-3.106-8.801-2.032-13.472c2.877,2.513,5.456,5.407,7.949,8.257c2.804,3.203,4.978,7.169,8.049,10.069
		c0.218,0.206,0.446,0.345,0.678,0.467C113.996,46.578,108.76,45.693,104.851,41.419z M96.301,27.636
		c-1.266,6.166-0.997,12.849,3.227,17.739c3.761,4.356,9.146,5.998,14.639,6.03c-3.151,1.203-6.312,3.882-8.194,5.765
		c-2.643,2.645-3.992,6.266-3.11,9.939c1.979,8.247,11.921,8.554,19.203,7.657c0.091,1.112,0.179,2.225,0.286,3.341
		c-7.234,0.944-12.371,1.45-18.23-3.921c-5.931-5.438-8.989-13.319-10.839-20.944C91.072,44.131,92.262,34.906,96.301,27.636z
		 M85.123,38.852c-0.331,2.637-0.472,5.337-0.377,8.077c-0.191-0.038-0.381-0.077-0.573-0.112c-0.489-2.656-1.008-5.305-1.563-7.939
		C83.447,38.87,84.287,38.878,85.123,38.852z M112.575,169.99c-13.141,14.852-31.602,15.348-47.685,6.176
		c-0.611-6.458-4.041-13.118-5.33-19.515c-2.738-13.588-2.854-27.88-2.969-41.69c-0.2-24.084-0.21-48.487,2.098-72.505
		c3.588,3.897,9.31,8.02,15.348,10.346c0.011,0.101,0.021,0.207,0.034,0.307c0.885,7.692,1.865,15.42,2.886,23.152
		c-2.46-0.585-4.968-1.055-7.527-1.407c0.007-0.913-1.477-1.339-2.016-0.458c-0.1,0.164-0.182,0.341-0.281,0.506
		c-0.729,0.388-1.122,1.194-1.145,2.061c-10.608,19.757-9.576,47.645-5.289,68.698c2.789,13.697,19.509,32.87,35.132,24.156
		c16.86-9.405,20.822-33.682,22.652-51.027c0.76-7.207,2.103-21.142-1.827-27.851c-2.381-4.065-14.629-6.028-18.854-7.71
		c-2.771-1.104-5.518-2.148-8.266-3.141c-0.095-0.603-0.182-1.207-0.278-1.81c-1.143-7.21-2.215-14.608-3.42-22.022
		c0.109,0.529,0.186,1.06,0.309,1.588c3.02,12.912,22.525,39.836,36.553,23.701c1.462,13.396,3.785,26.844,4.088,38.648
		C127.264,138.761,125.251,155.66,112.575,169.99z M89.321,156.517c0.624,3.616,6.021,2.55,6.15-0.832
		c0.88-23.079-1.479-45.823-4.857-68.566c5.655,2.131,11.295,4.325,17.011,6.397c7.213,2.613,5.394,12.175,4.912,19.089
		c-1.137,16.294-3.633,35.913-14.822,48.697c-7.822,8.939-18.141,3.127-25.401-3.05c-7.514-6.391-8.55-18.81-9.332-27.84
		c-1.379-15.909-0.479-35.215,4.837-50.889c3.37,0.897,6.689,1.908,9.978,2.997C81.163,107.264,85.106,132.091,89.321,156.517z
		 M126.372,38.903c-1.593-4.894-2.274-9.739-2.42-14.845c3.703,0.659,7.961,1.872,9.198,4.81
		C134.678,32.503,129.482,36.517,126.372,38.903z M131.225,47.721c4.309-0.116,8.58,0.919,12.871,1.589
		c0.295,3.051,0.301,6.655-2.07,8.371c-2.458,1.776-6.027,2.206-9.191,2.652C132.418,56.067,131.88,51.862,131.225,47.721z
		 M133.94,74.842c-0.148-2.55-0.315-5.098-0.506-7.638c4.758-0.958,9.774-1.725,13.519-5.042c4.496-3.983,3.763-11.169,2.954-16.43
		c-0.2-1.298-1.749-2.355-3.005-2.288c-5.483,0.292-10.933-0.411-16.267,0.581c-0.018-0.1-0.029-0.202-0.048-0.301
		c5.24-3.82,10.787-9.793,8.787-16.573c-2.171-7.359-12.296-9.147-18.663-9.953c-1.706-0.216-3.191,1.605-3.173,3.173
		c0.079,6.541,0.75,12.046,2.978,17.618c-1.683-2.274-3.761-4.391-5.319-6.214c-3.732-4.363-7.798-8.598-12.483-11.945
		c4.712-3.93,10.876-6.318,18.37-6.213C152.006,14.056,166.892,65.271,133.94,74.842z"/>
</g>
</svg>