<?xml version="1.0" ?>
<!-- Uploaded to: SVG Repo, www.svgrepo.com, Generator: SVG Repo Mixer Tools -->
<svg width="800px" height="800px" viewBox="0 0 128 128" version="1.1" xml:space="preserve" xmlns="http://www.w3.org/2000/svg" xmlns:xlink="http://www.w3.org/1999/xlink">
<style type="text/css">
	.st0{fill:#69A401;}
	.st1{fill:#EFE691;}
	.st2{fill:#B20000;}
	.st3{fill:#DF1801;}
	.st4{fill:#F40603;}
	.st5{fill:#FFEEEE;}
	.st6{fill:#847B3C;}
	.st7{fill:#CEB600;}
	.st8{fill:#F8CD02;}
	.st9{fill:#F7C800;}
	.st10{fill:#F6E8B9;}
	.st11{fill:#F6E9CA;}
	.st12{fill:#CF8A11;}
	.st13{fill:#286F0D;}
	.st14{fill:#63271D;}
	.st15{fill:#EB8102;}
	.st16{fill:#E37303;}
	.st17{fill:#D97102;}
	.st18{fill:#BF6302;}
	.st19{fill:#EA9735;}
	.st20{fill:#3E1A01;}
	.st21{fill:#C96A0A;}
	.st22{fill:#CE2335;}
	.st23{fill:#C0242D;}
	.st24{fill:#BA1A23;}
	.st25{fill:#F9DCC7;}
	.st26{fill:#DBE2CE;}
	.st27{fill:#7D4B12;}
	.st28{fill:#75480C;}
	.st29{fill:#66410C;}
	.st30{fill:#88550D;}
	.st31{fill:#FFFEE9;}
	.st32{fill:#9B9F1A;}
	.st33{fill:#F6E177;}
	.st34{fill:#443A00;}
	.st35{fill:#305209;}
	.st36{fill:#7F7C04;}
	.st37{fill:#BAB424;}
	.st38{fill:#F7CF43;}
	.st39{fill:#DE940E;}
	.st40{fill:#5F570A;}
	.st41{fill:#175424;}
	.st42{fill:#215B25;}
	.st43{fill:#1B5020;}
	.st44{fill:#C0F9C0;}
	.st45{fill:#F3DA78;}
	.st46{fill:#BC441C;}
	.st47{fill:#148E2E;}
	.st48{fill:#283767;}
	.st49{fill:#425285;}
	.st50{fill:#CFDFFF;}
	.st51{fill:#1F2C55;}
	.st52{fill:#776220;}
	.st53{fill:#90236B;}
	.st54{fill:#5D1A47;}
	.st55{fill:#99499A;}
	.st56{fill:#FCCAFA;}
	.st57{fill:#917C31;}
	.st58{fill:#F4C435;}
	.st59{fill:#F1BC02;}
	.st60{fill:#F0B102;}
	.st61{fill:#F1F7BA;}
	.st62{fill:#E3DCB9;}
	.st63{fill:#BD6800;}
	.st64{fill:#E19704;}
	.st65{fill:#B2CA2B;}
	.st66{fill:#AFC20F;}
	.st67{fill:#B9CB00;}
	.st68{fill:#E5F392;}
	.st69{fill:#F78202;}
	.st70{fill:#F79613;}
	.st71{fill:#331F07;}
	.st72{fill:#402B16;}
	.st73{fill:#669404;}
	.st74{fill:#F58E13;}
	.st75{fill:#D87117;}
	.st76{fill:#216604;}
	.st77{fill:#286D08;}
	.st78{fill:#C8C625;}
	.st79{fill:#2C441F;}
	.st80{fill:#F1E6BF;}
	.st81{fill:#F2BE2E;}
	.st82{fill:#BF8F33;}
	.st83{fill:#568804;}
	.st84{fill:#669614;}
	.st85{fill:#688E0C;}
	.st86{fill:#4C7005;}
	.st87{fill:#A0CA49;}
	.st88{fill:#99BD70;}
	.st89{fill:#78AA25;}
	.st90{fill:#4B7C23;}
	.st91{fill:#EADBC8;}
	.st92{fill:#F0D5B0;}
	.st93{fill:#DF2B2B;}
	.st94{fill:#D1262C;}
	.st95{fill:#B7252C;}
	.st96{fill:#46670C;}
	.st97{fill:#F49D5B;}
	.st98{fill:#F57A55;}
	.st99{fill:#F1C3A7;}
	.st100{fill:#CC0917;}
	.st101{fill:#DC1035;}
	.st102{fill:#9BAC0F;}
	.st103{fill:#667A1D;}
	.st104{fill:#7A9D18;}
	.st105{fill:#F6F7E6;}
	.st106{fill:#F0194D;}
	.st107{fill:#362420;}
	.st108{fill:#530618;}
	.st109{fill:#44041A;}
	.st110{fill:#490419;}
	.st111{fill:#F8A459;}
	.st112{fill:#871B22;}
	.st113{fill:#600613;}
	.st114{fill:#F8C790;}
	.st115{fill:#447832;}
	.st116{fill:#7C473D;}
	.st117{fill:#441432;}
	.st118{fill:#51163F;}
	.st119{fill:#5B1A41;}
	.st120{fill:#FCEBF9;}
	.st121{fill:#ECE5CE;}
	.st122{fill:#BC3E2C;}
	.st123{fill:#A60F26;}
	.st124{fill:#C61632;}
	.st125{fill:#BD1331;}
	.st126{fill:#F8B772;}
	.st127{fill:#F7DDAC;}
	.st128{fill:#850E11;}
	.st129{fill:#191200;}
	.st130{fill:#553D2D;}
	.st131{fill:#F9E2D2;}
	.st132{fill:#CA8937;}
	.st133{fill:#462D16;}
	.st134{fill:#6D8916;}
	.st135{fill:#96B54E;}
	.st136{fill:#E3E2DE;}
	.st137{fill:#261811;}
	.st138{fill:#525C11;}
	.st139{fill:#14581E;}
	.st140{fill:#3D7712;}
	.st141{fill:#9BC148;}
	.st142{fill:#E22434;}
	.st143{fill:#C6DD9E;}
	.st144{fill:#F89A07;}
	.st145{fill:#F7A410;}
	.st146{fill:#F8AB19;}
	.st147{fill:#F7B81C;}
	.st148{fill:#E5870A;}
	.st149{fill:#97A304;}
	.st150{fill:#A88C5C;}
	.st151{fill:#ADC21E;}
	.st152{fill:#A3BA0B;}
	.st153{fill:#8D9E08;}
	.st154{fill:#E0DAB9;}
	.st155{fill:#684219;}
	.st156{fill:#777F05;}
	.st157{fill:#F2E9C4;}
	.st158{fill:#CBB465;}
	.st159{fill:#FFF5CA;}
	.st160{fill:#E52828;}
	.st161{fill:#F87302;}
	.st162{fill:#FF7B22;}
	.st163{fill:#FC7F10;}
	.st164{fill:#F8A200;}
	.st165{fill:#F8DC91;}
	.st166{fill:#FFFFFF;}
	.st167{fill:#F5D7D5;}
	.st168{fill:#EDA07A;}
	.st169{fill:#FCBEBE;}
	.st170{fill:#EAD991;}
	.st171{fill:#582612;}
</style>
<g id="_x33_0_Mulberry"/>
<g id="_x32_9_Star_Fruit"/>
<g id="_x32_8_Apricot"/>
<g id="_x32_7_Litchi"/>
<g id="_x32_6_Kiwi"/>
<g id="_x32_5_Jackfruit"/>
<g id="_x32_4_Avacado"/>
<g id="_x32_3_Blueberry"/>
<g id="_x32_2_Purple_Grapes"/>
<g id="_x32_1_Melon"/>
<g id="_x32_0_Green_Grapes"/>
<g id="_x31_9_Papaya"/>
<g id="_x31_8_Pineapple"/>
<g id="_x31_7_Banana"/>
<g id="_x31_6_Tender_Coconut"/>
<g id="_x31_5_Strawberry"/>
<g id="_x31_4_Dragon_Fruit"/>
<g id="_x31_3_Plum"/>
<g id="_x31_2_Fig"/>
<g id="_x31_1_Peach"/>
<g id="_x31_0_Cherry"/>
<g id="_x30_9_Sapota"/>
<g id="_x30_8_Custard_Apple"/>
<g id="_x30_7_Watermelon"/>
<g id="_x30_6_Mango"/>
<g id="_x30_5_Pear"/>
<g id="_x30_4_Guava"/>
<g id="_x30_3_Pomegranate"/>
<g id="_x30_2_Orange">
<g id="XMLID_64_">
<g id="XMLID_93_">
<g id="XMLID_96_">
<path class="st13" d="M40.715,10.205c-2.974,4.649-3.34,10.082-1.508,14.811      c5.305-0.701,10.24-3.556,13.214-8.205S55.761,6.728,53.929,2C48.625,2.701,43.689,5.556,40.715,10.205z" id="XMLID_98_"/>
<path class="st14" d="M39.606,34.358c-1.104,0-2-0.896-2-2v-3.895c0-4.253-2.103-8.178-5.625-10.499      c-0.922-0.607-1.177-1.848-0.569-2.771c0.607-0.921,1.848-1.177,2.771-0.569c4.648,3.063,7.423,8.236,7.423,13.839v3.895      C41.606,33.463,40.711,34.358,39.606,34.358z"/>
</g>
<ellipse class="st161" cx="39.057" cy="69.581" id="XMLID_99_" rx="37.057" ry="37.223"/>
<path class="st162" d="M20.6,69.581c0-17.331,11.792-31.895,27.757-36.04c-2.972-0.772-6.088-1.183-9.3-1.183     C18.591,32.358,2,49.023,2,69.581s16.591,37.223,37.057,37.223c3.212,0,6.328-0.411,9.3-1.183     C32.392,101.476,20.6,86.912,20.6,69.581z" id="XMLID_287_"/>
<path class="st163" d="M12.333,69.581c0-18.795,13.871-34.328,31.89-36.855     c-1.689-0.237-3.412-0.368-5.167-0.368C18.591,32.358,2,49.023,2,69.581s16.591,37.223,37.057,37.223     c1.754,0,3.477-0.131,5.167-0.368C26.205,103.909,12.333,88.376,12.333,69.581z" id="XMLID_285_"/>
<path class="st25" d="M14.799,79.477c-0.922,0-1.751-0.642-1.953-1.58c-0.584-2.715-0.88-5.513-0.88-8.315     c0-7.328,2.026-14.476,5.858-20.671c0.581-0.938,1.813-1.23,2.753-0.648c0.939,0.581,1.229,1.813,0.648,2.753     c-3.441,5.563-5.26,11.982-5.26,18.566c0,2.521,0.266,5.035,0.791,7.475c0.232,1.08-0.455,2.144-1.535,2.375     C15.08,79.462,14.938,79.477,14.799,79.477z"/>
<path class="st25" d="M17.16,85.34c-0.52,0-1.04-0.21-1.41-0.59c-0.37-0.37-0.59-0.88-0.59-1.41c0-0.13,0.02-0.26,0.04-0.39     c0.03-0.13,0.07-0.25,0.12-0.37c0.05-0.12,0.11-0.24,0.18-0.35c0.07-0.11,0.16-0.21,0.25-0.3c0.09-0.1,0.19-0.18,0.3-0.25     c0.11-0.07,0.23-0.14,0.35-0.19c0.12-0.05,0.25-0.08,0.37-0.11c0.65-0.13,1.34,0.08,1.81,0.55c0.09,0.09,0.17,0.19,0.25,0.3     c0.07,0.11,0.13,0.23,0.18,0.35c0.05,0.12,0.09,0.24,0.11,0.37c0.03,0.13,0.04,0.26,0.04,0.39c0,0.53-0.21,1.04-0.58,1.41     C18.21,85.13,17.69,85.34,17.16,85.34z"/>
</g>
<g id="XMLID_65_">
<ellipse class="st164" cx="88.739" cy="88.644" id="XMLID_92_" rx="37.261" ry="37.356"/>
<path class="st165" d="M88.738,122.9c-18.837,0-34.161-15.367-34.161-34.255s15.324-34.256,34.161-34.256     S122.9,69.756,122.9,88.645S107.575,122.9,88.738,122.9z" id="XMLID_279_"/>
<path class="st163" d="M88.738,119.8c-17.127,0-31.061-13.976-31.061-31.155     c0-17.18,13.934-31.156,31.061-31.156S119.8,71.465,119.8,88.645C119.8,105.824,105.866,119.8,88.738,119.8z" id="XMLID_395_"/>
<g id="XMLID_66_">
<path class="st161" d="M88.739,88.644L81.36,66.138c-0.882-2.69,0.623-5.573,3.36-6.439l0.034-0.011      c2.605-0.824,5.408-0.822,8.012,0.006h0c2.733,0.869,4.233,3.75,3.352,6.436L88.739,88.644z" id="XMLID_91_"/>
<path class="st161" d="M88.739,88.644l-23.763-5.049c-2.84-0.603-4.659-3.31-4.063-6.045l0.007-0.034      c0.567-2.603,1.971-4.959,4.011-6.735l0,0c2.142-1.864,5.461-1.685,7.417,0.399L88.739,88.644z" id="XMLID_90_"/>
<path class="st161" d="M88.739,88.644l-16.384,17.458c-1.958,2.086-5.281,2.263-7.422,0.394l-0.027-0.023      c-2.038-1.779-3.438-4.137-4.001-6.741v0c-0.591-2.733,1.228-5.434,4.064-6.037L88.739,88.644z" id="XMLID_89_"/>
<path class="st161" d="M88.739,88.644l7.378,22.507c0.882,2.69-0.623,5.573-3.36,6.439l-0.034,0.011      c-2.605,0.824-5.408,0.822-8.012-0.006h0c-2.733-0.869-4.233-3.75-3.352-6.436L88.739,88.644z" id="XMLID_75_"/>
<path class="st161" d="M88.739,88.644l23.763,5.049c2.84,0.603,4.659,3.31,4.063,6.045l-0.007,0.034      c-0.567,2.603-1.971,4.959-4.011,6.735h0c-2.142,1.864-5.461,1.685-7.417-0.399L88.739,88.644z" id="XMLID_74_"/>
<path class="st161" d="M88.739,88.644l16.384-17.458c1.958-2.086,5.281-2.263,7.422-0.394l0.027,0.023      c2.038,1.779,3.438,4.137,4.001,6.741v0c0.591,2.733-1.228,5.434-4.064,6.037L88.739,88.644z" id="XMLID_73_"/>
<path class="st166" d="M88.737,68.449c-1.104,0-2-0.896-2-2v-4.277c0-1.104,0.896-2,2-2s2,0.896,2,2v4.277      C90.737,67.554,89.842,68.449,88.737,68.449z"/>
<path class="st166" d="M69.445,80.065c-0.333,0-0.671-0.083-0.982-0.259l-3.786-2.139c-0.961-0.543-1.301-1.763-0.757-2.725      c0.543-0.962,1.763-1.301,2.725-0.757l3.786,2.139c0.961,0.543,1.301,1.763,0.757,2.725      C70.82,79.699,70.143,80.065,69.445,80.065z"/>
<path class="st166" d="M64.631,103.365c-0.698,0-1.376-0.366-1.744-1.017c-0.543-0.962-0.204-2.182,0.758-2.725l3.786-2.138      c0.963-0.542,2.182-0.204,2.725,0.758s0.204,2.182-0.758,2.725l-3.786,2.138C65.302,103.282,64.964,103.365,64.631,103.365z"/>
<path class="st166" d="M88.74,117.117c-1.104,0-2-0.896-2-2v-4.277c0-1.104,0.896-2,2-2s2,0.896,2,2v4.277      C90.74,116.221,89.844,117.117,88.74,117.117z"/>
<path class="st166" d="M112.848,103.363c-0.333,0-0.671-0.083-0.982-0.259l-3.786-2.139c-0.961-0.543-1.301-1.763-0.757-2.725      c0.543-0.961,1.763-1.301,2.725-0.757l3.786,2.139c0.961,0.543,1.301,1.763,0.757,2.725      C114.223,102.998,113.545,103.363,112.848,103.363z"/>
<path class="st166" d="M109.064,80.063c-0.698,0-1.375-0.366-1.743-1.017c-0.543-0.962-0.204-2.182,0.757-2.725l3.786-2.139      c0.963-0.545,2.182-0.204,2.725,0.757c0.543,0.962,0.204,2.182-0.757,2.725l-3.786,2.139      C109.735,79.979,109.397,80.063,109.064,80.063z"/>
</g>
<ellipse class="st167" cx="88.739" cy="88.644" id="XMLID_76_" rx="8.503" ry="8.538"/>
</g>
</g>
</g>
<g id="_x30_1_Apple"/>
</svg>