<svg width="19" height="22" viewBox="0 0 19 22" fill="none" xmlns="http://www.w3.org/2000/svg">
<path d="M15.4412 12.8105L15.4411 12.8105C13.833 11.7222 11.6739 10.9545 9.40909 10.9545C7.14431 10.9545 4.98515 11.7222 3.37704 12.8105C1.84216 13.8484 0.5 15.4082 0.5 17.1364C0.5 18.0262 0.959489 18.743 1.51779 19.2645L1.51784 19.2645C2.07374 19.7836 2.80797 20.1912 3.60244 20.5073L3.60268 20.5074C5.19947 21.1417 7.28435 21.5 9.40909 21.5C11.5338 21.5 13.6187 21.1417 15.2155 20.5074L15.2157 20.5073C16.0097 20.1914 16.7451 19.7839 17.3004 19.2645C17.8577 18.744 18.3182 18.0263 18.3182 17.1364C18.3182 15.4071 16.9757 13.8491 15.4412 12.8105ZM5.61414 1.97778C4.66794 2.92399 4.13636 4.20732 4.13636 5.54545C4.13636 6.88359 4.66794 8.16692 5.61414 9.11313C6.56035 10.0593 7.84368 10.5909 9.18182 10.5909C10.52 10.5909 11.8033 10.0593 12.7495 9.11313C13.6957 8.16692 14.2273 6.88359 14.2273 5.54545C14.2273 4.20732 13.6957 2.92399 12.7495 1.97778C11.8033 1.03157 10.52 0.5 9.18182 0.5C7.84368 0.5 6.56035 1.03157 5.61414 1.97778Z" fill="#ECECEC" stroke="black"/>
</svg>
