<?xml version="1.0" ?>
<!-- Uploaded to: SVG Repo, www.svgrepo.com, Generator: SVG Repo Mixer Tools -->
<svg width="800px" height="800px" viewBox="0 0 32 32" xmlns="http://www.w3.org/2000/svg">
<defs>
<style>.cls-1{fill:#00c853;}.cls-2{fill:#795548;}</style>
</defs>
<title/>
<g data-name="Layer 3" id="Layer_3">
<path class="cls-1" d="M26.06,11.68a.5.5,0,1,0-.12-1,1.52,1.52,0,0,0-.2.06,1.58,1.58,0,0,0-.07-.35.48.48,0,0,0-.61-.33.49.49,0,0,0-.34.62,2.22,2.22,0,0,1,0,1h0s0,.06,0,.09a1.92,1.92,0,0,0-.35-.16.5.5,0,1,0-.33.94c.16.06.19.11.19.11a.38.38,0,0,1-.09.21q-.13.18-.3.36a1.2,1.2,0,0,0-.54-.41.5.5,0,1,0-.39.92c.11,0,.13.08.13.08a.25.25,0,0,1,0,.14c-.21.15-.44.3-.7.45a1.37,1.37,0,0,0-.33-.57.5.5,0,1,0-.73.69.33.33,0,0,1,.11.2.73.73,0,0,1-.25.31l-.05.05c-.21.12-.44.22-.63.35a1.32,1.32,0,0,0-.58-.53.5.5,0,0,0-.46.89.43.43,0,0,1,.18.14.71.71,0,0,1-.18.3h0c-.17.15-.32.3-.47.45a1.25,1.25,0,0,0-.42-.62.51.51,0,0,0-.71.09.5.5,0,0,0,.09.7c.27.21,0,1-.36,1.54a12.61,12.61,0,0,0-.94,1.66,12.56,12.56,0,0,1,.26-2.35c.06-.1.17-.28.33-.25a.5.5,0,1,0,.2-1h-.17c.09-.27.2-.55.32-.82a.6.6,0,0,1,.66-.25.5.5,0,0,0,.58-.4.48.48,0,0,0-.39-.58,1.5,1.5,0,0,0-.2,0,8,8,0,0,1,.48-.71,1,1,0,0,1,.86-.12.49.49,0,0,0,.6-.37.5.5,0,0,0-.37-.6,1,1,0,0,0-.16,0l.28-.31h0L20,12.1l.17-.21.12-.07a.7.7,0,0,1,.47.15.5.5,0,1,0,.54-.84,2.09,2.09,0,0,0-.36-.19l.28-.36a.72.72,0,0,1,.65,0,.5.5,0,1,0,.36-.93,1.63,1.63,0,0,0-.3-.07l.29-.45s.16-.1.54,0a.51.51,0,0,0,.62-.35A.52.52,0,0,0,23,8.13l-.25,0c.12-.24.22-.47.31-.68h0a.53.53,0,0,1,.23-.25.43.43,0,0,1,.32,0A.51.51,0,0,0,24.3,7,.49.49,0,0,0,24,6.29a1.28,1.28,0,0,0-.5-.13,6.19,6.19,0,0,0,.14-.68.5.5,0,0,0-1-.08,6.35,6.35,0,0,1-.56,1.72,1.41,1.41,0,0,0-.55-.26.5.5,0,0,0-.24,1c.15,0,.23.09.25.13a.65.65,0,0,1-.13.42,0,0,0,0,1,0,0c-.05.09-.1.18-.16.27a1.33,1.33,0,0,0-.68-.4.5.5,0,1,0-.25,1,.34.34,0,0,1,.21.12.76.76,0,0,1,0,.46l-.32.42a1.31,1.31,0,0,0-.44-.31.5.5,0,0,0-.66.27.49.49,0,0,0,.27.65.27.27,0,0,1,.11.07c0,.08-.11.36-.3.59s-.19.21-.29.32a1.19,1.19,0,0,0-.51-.56.5.5,0,1,0-.5.86c.23.14.16.56.12.73l-.14.19h0l-.26.36a1.07,1.07,0,0,0-.77-.27.47.47,0,0,0-.46.5.53.53,0,0,0,.53.48,1.07,1.07,0,0,1-.09.59c-.11.23-.22.46-.32.69l0,0a1.35,1.35,0,0,0-.67-.07.5.5,0,0,0,.12,1h.16a.43.43,0,0,1,0,.16,12.17,12.17,0,0,0-.52,2.76c-.09-.3-.18-.61-.25-.94s-.07-.94.26-1.1a.52.52,0,0,0,.22-.68.51.51,0,0,0-.67-.22l-.15.1c0-.2,0-.4,0-.6s.16-.69.5-.69a.5.5,0,0,0,.5-.5.51.51,0,0,0-.5-.5,1.32,1.32,0,0,0-.51.11A9,9,0,0,1,15,13a.48.48,0,0,1,.56-.32.5.5,0,0,0,.55-.45.49.49,0,0,0-.45-.54,2,2,0,0,0-.42,0c.11-.54.18-1.05.24-1.52,0-.13.15-.27.5-.23a.5.5,0,0,0,.12-1,1.71,1.71,0,0,0-.51,0c0-.43,0-.82,0-1.18a.82.82,0,0,1,.57-.73.5.5,0,0,0,.32-.63.49.49,0,0,0-.63-.32,2,2,0,0,0-.36.16,4.79,4.79,0,0,0-.23-1,.5.5,0,1,0-.93.35s0,.12.09.35a1.29,1.29,0,0,0-.56-.07.5.5,0,0,0-.43.56.49.49,0,0,0,.56.44c.21,0,.45.24.59.44s0,.33,0,.51h0a1.46,1.46,0,0,0-1.11-.09.5.5,0,0,0,.27,1,.48.48,0,0,1,.4,0,1.07,1.07,0,0,1,.38.62c0,.23,0,.46-.07.71a1.27,1.27,0,0,0-.78-.18.5.5,0,0,0-.47.53.5.5,0,0,0,.53.47c.19,0,.24,0,.27.08a1.46,1.46,0,0,1,.15.91c0,.17-.07.34-.11.53s0,.27-.07.41l0,.09V13a.5.5,0,0,1,0,.12,1.51,1.51,0,0,0-.58,0,.5.5,0,0,0,.12,1,.36.36,0,0,1,.25,0,.37.37,0,0,1,.08.2,12,12,0,0,0,0,1.34,1.28,1.28,0,0,0-.34,0,.48.48,0,0,0-.37.59.55.55,0,0,0,.62.41,1,1,0,0,1,.23.51,19.21,19.21,0,0,0,.61,2.67l-.57-.64h0l-.23-.25c-.08-.24-.16-.67,0-.81a.5.5,0,0,0-.63-.77,1.14,1.14,0,0,0-.36.5l-.32-.33c-.06-.13-.22-.51.09-.71a.5.5,0,0,0,.15-.69.51.51,0,0,0-.7-.15,1.42,1.42,0,0,0-.48.54,1.29,1.29,0,0,1-.16-.17c-.07-.26-.09-.63,0-.73a.5.5,0,0,0,0-.71.5.5,0,0,0-.71,0,1.05,1.05,0,0,0-.3.46l-.15-.15c-.05-.22-.11-.68.12-.84a.5.5,0,0,0,.1-.7.51.51,0,0,0-.7-.11,1.31,1.31,0,0,0-.42.55A7,7,0,0,1,9,13.39.73.73,0,0,1,9.1,13s.08-.1.27-.1a.5.5,0,0,0,0-1h0a1.3,1.3,0,0,0-.93.37,8.59,8.59,0,0,1-.34-1c0-.2.18-.63.52-.65a.5.5,0,0,0,.47-.52.5.5,0,0,0-.52-.48,1.36,1.36,0,0,0-.77.29,9.89,9.89,0,0,1-.12-1,.56.56,0,0,1,.55-.5.49.49,0,0,0,.43-.56.5.5,0,0,0-.56-.43,2,2,0,0,0-.47.13,12,12,0,0,1,.16-1.9.5.5,0,0,0-1-.19c0,.06-.07.39-.12.91a1.85,1.85,0,0,0-.59-.22.49.49,0,0,0-.56.41.51.51,0,0,0,.41.58.86.86,0,0,1,.67.71c0,.3,0,.63,0,1a1.4,1.4,0,0,0-.8.05.5.5,0,0,0-.3.64.49.49,0,0,0,.64.3.5.5,0,0,1,.6.25A11.77,11.77,0,0,0,7,11.24a1.26,1.26,0,0,0-.54,0,.5.5,0,0,0,.28,1c.34-.1.63.26.7.35.1.25.21.51.33.76a2.74,2.74,0,0,0-.66.09.52.52,0,0,0-.35.62.5.5,0,0,0,.62.35c.77-.21,1.08.11,1.1.14l0,0,.12.17a2.61,2.61,0,0,0-.71.11.5.5,0,0,0-.34.62.51.51,0,0,0,.63.33,1.78,1.78,0,0,1,1.53.27,2.17,2.17,0,0,0-.65.22.5.5,0,0,0,.48.88,1.28,1.28,0,0,1,1.5.27l.16.17a1.55,1.55,0,0,0-.5.3.5.5,0,1,0,.68.74c.26-.25.68,0,.81,0l.29.31a1.23,1.23,0,0,0-.58.38.51.51,0,0,0,.06.71.46.46,0,0,0,.32.11.52.52,0,0,0,.38-.17c.14-.17.48-.12.7-.06l.19.22a1.66,1.66,0,0,0-.6.4.5.5,0,0,0,0,.71.49.49,0,0,0,.34.14.51.51,0,0,0,.36-.15.6.6,0,0,1,.72-.16c.76.87,1.19,1.39,1.32,1.55a7,7,0,0,1,.31,1.87.5.5,0,0,0,.5.47h0a.51.51,0,0,0,.47-.53,8,8,0,0,0-.35-2.09,12.22,12.22,0,0,1,1.46-3.22,1.64,1.64,0,0,1,1.29-.2.5.5,0,1,0,.14-1l-.51,0c.1-.1.18-.21.28-.31a1.21,1.21,0,0,1,.84-.05.5.5,0,0,0,.6-.38.49.49,0,0,0-.32-.57,1.37,1.37,0,0,1,.2-.13,1.3,1.3,0,0,1,.94.09.5.5,0,0,0,.43-.89,10,10,0,0,0,.93-.52h0s.24-.11.75.16a.46.46,0,0,0,.23.06.49.49,0,0,0,.44-.26.5.5,0,0,0-.2-.68l-.16-.07c.13-.12.27-.25.38-.37a1,1,0,0,1,.46-.23.43.43,0,0,1,.34.12.5.5,0,0,0,.64-.76,1.46,1.46,0,0,0-.59-.31,5,5,0,0,0,.31-.82A.48.48,0,0,1,26.06,11.68Z"/>
<path class="cls-2" d="M17.05,24.11c0,.12,0,.23,0,.36a.51.51,0,0,1-.47.53h0a.5.5,0,0,1-.5-.47c0-.17,0-.3,0-.45a1.5,1.5,0,1,0,1,0Z"/>
</g>
</svg>