<?xml version="1.0" encoding="iso-8859-1"?>
<!-- Uploaded to: SVG Repo, www.svgrepo.com, Generator: SVG Repo Mixer Tools -->
<!DOCTYPE svg PUBLIC "-//W3C//DTD SVG 1.1//EN" "http://www.w3.org/Graphics/SVG/1.1/DTD/svg11.dtd">
<svg fill="#000000" version="1.1" id="Capa_1" xmlns="http://www.w3.org/2000/svg" xmlns:xlink="http://www.w3.org/1999/xlink" 
	 width="800px" height="800px" viewBox="0 0 551.112 551.111"
	 xml:space="preserve">
<g>
	<g>
		<path d="M530.526,262.647c-150.9,5.8-224-115.101-240.8-250.601c-1.8-14.7-23.3-15.6-23.6,0c-3.1,102.8-69.8,239.9-188.2,237.8
			c-8.3-0.3-11,8-8.3,13.801c-0.3,0.3-0.6,0.6-0.9,1.199c-14.1,27.2,68.8,53.601,83.2,60.9c76.3,38.2,108.7,106.399,145.1,176.8
			c0.3,4.3,2.1,7,4.6,8.9c5.801,11,11.601,22.3,18.101,33.399c6.7,11.9,22.3,5.2,23.899-6.399c12.5-109.7,71.2-231.7,190.601-251
			C547.926,284.947,544.625,262.347,530.526,262.647z M244.426,166.847c-0.9,2.101-2.1,4.301-3.1,6.101
			c-5.8,8.6-11,17.399-16.2,26.6c-2.1,1.2-4.6,2.8-6.7,4C228.226,192.547,236.726,180.047,244.426,166.847z M314.826,168.047
			c-6.1-11-12.5-21.7-19.3-32.399c-0.9-4.9-1.5-9.801-2.4-14.7c7,17.7,15,34.6,24.5,50.2
			C316.625,169.947,315.726,169.047,314.826,168.047z"/>
		<path d="M137.926,42.047c-29.7,9.8-46.8-2.399-63.6-21.399c-4.3-7.301-10.4-14.101-19-19.601c-4.9-3.399-11.9,2.101-10.1,7.601
			c0.6,1.8,1.2,3.399,1.8,5.199c-0.9,2.101-1.2,4.301-0.6,6.4c1.5,6.4,4,12.2,7.3,17.4c5.5,27.8,1.2,52.899-36.7,62.1
			c-13.5,3.4-11,26,3.4,24.5c31.2-3.1,56,6.7,66.7,38.2c4.3,12.899,26.3,11.6,24.8-3.4c-3.7-37,2.4-72.8,35.8-94.2
			C159.326,57.647,152.026,37.147,137.926,42.047z"/>
		<path d="M502.026,96.147c-12.9-4-25.7-8.601-33.7-20.2c-3.7-5.5-4.6-11.601-8.899-15.9c0-5.8-0.301-11.6-1.801-17.7
			c-1.5-7-11.899-5.199-12.199,1.5c-0.9,33.4-16.2,52-49.301,57.801c-9.5,1.5-11,16.199-2.8,20.199c22.601,11,38.9,16.5,53.9,38.2
			c4.899,7.3,14.399,7,19.3,0c11.6-16.5,26-30.899,40.4-45C513.026,108.747,510.026,98.647,502.026,96.147z"/>
		<path d="M172.826,431.847c-20.2-0.899-22-20.2-34-33.399c-8.9-10.101-22.9,1.8-19,12.5c-1.8,3.399-3.7,7.3-6.7,10.399
			c-12.2,12.5-26.6,19-43.5,21.7c-13.5,2.1-9.5,22.3,3.1,22.6c27.5,0.601,46.5,10.7,52,38.9c2.4,12.2,19,10.1,22.3,0
			c7.3-21.4,19.6-35.2,34-52.6C187.526,444.047,183.526,432.447,172.826,431.847z"/>
	</g>
</g>
</svg>