<?xml version="1.0" encoding="utf-8"?>
<!-- Uploaded to: SVG Repo, www.svgrepo.com, Generator: SVG Repo Mixer Tools -->
<svg width="800px" height="800px" viewBox="0 0 1024 1024" class="icon"  version="1.1" xmlns="http://www.w3.org/2000/svg"><path d="M176.128 256h61.44v61.44h-61.44z" fill="#009944" /><path d="M237.568 256h61.44v61.44h-61.44z" fill="#231815" /><path d="M299.008 256h61.44v61.44h-61.44z" fill="#E60012" /><path d="M358.4 256h61.44v61.44h-61.44zM419.84 256h61.44v61.44h-61.44z" fill="#E60012" /><path d="M479.232 256h61.44v61.44h-61.44z" fill="#231815" /><path d="M540.672 256h61.44v61.44h-61.44zM602.112 256h61.44v61.44h-61.44z" fill="#E60012" /><path d="M176.128 317.44h61.44v61.44h-61.44z" fill="#009944" /><path d="M237.568 317.44h61.44v61.44h-61.44z" fill="#E60012" /><path d="M176.128 376.832h61.44v61.44h-61.44z" fill="#009944" /><path d="M237.568 376.832h61.44v61.44h-61.44zM299.008 317.44h61.44v61.44h-61.44z" fill="#E60012" /><path d="M358.4 317.44h61.44v61.44h-61.44z" fill="#E60012" /><path d="M299.008 376.832h61.44v61.44h-61.44z" fill="#E60012" /><path d="M358.4 376.832h61.44v61.44h-61.44z" fill="#231815" /><path d="M419.84 317.44h61.44v61.44h-61.44z" fill="#E60012" /><path d="M479.232 317.44h61.44v61.44h-61.44z" fill="#E60012" /><path d="M419.84 376.832h61.44v61.44h-61.44z" fill="#E60012" /><path d="M479.232 376.832h61.44v61.44h-61.44zM540.672 317.44h61.44v61.44h-61.44z" fill="#E60012" /><path d="M602.112 317.44h61.44v61.44h-61.44z" fill="#231815" /><path d="M540.672 376.832h61.44v61.44h-61.44zM602.112 376.832h61.44v61.44h-61.44z" fill="#E60012" /><path d="M176.128 438.272h61.44v61.44h-61.44z" fill="#009944" /><path d="M237.568 438.272h61.44v61.44h-61.44z" fill="#E60012" /><path d="M176.128 499.712h61.44v61.44h-61.44z" fill="#009944" /><path d="M237.568 499.712h61.44v61.44h-61.44z" fill="#231815" /><path d="M299.008 438.272h61.44v61.44h-61.44z" fill="#E60012" /><path d="M358.4 438.272h61.44v61.44h-61.44zM299.008 499.712h61.44v61.44h-61.44z" fill="#E60012" /><path d="M358.4 499.712h61.44v61.44h-61.44zM419.84 438.272h61.44v61.44h-61.44z" fill="#E60012" /><path d="M479.232 438.272h61.44v61.44h-61.44zM419.84 499.712h61.44v61.44h-61.44z" fill="#E60012" /><path d="M479.232 499.712h61.44v61.44h-61.44z" fill="#231815" /><path d="M540.672 438.272h61.44v61.44h-61.44zM602.112 438.272h61.44v61.44h-61.44zM540.672 499.712h61.44v61.44h-61.44zM602.112 499.712h61.44v61.44h-61.44z" fill="#E60012" /><path d="M237.568 559.104h61.44v61.44h-61.44zM237.568 620.544h61.44v61.44h-61.44z" fill="#009944" /><path d="M299.008 559.104h61.44v61.44h-61.44z" fill="#E60012" /><path d="M358.4 559.104h61.44v61.44h-61.44zM299.008 620.544h61.44v61.44h-61.44z" fill="#E60012" /><path d="M358.4 620.544h61.44v61.44h-61.44z" fill="#231815" /><path d="M419.84 559.104h61.44v61.44h-61.44z" fill="#E60012" /><path d="M479.232 559.104h61.44v61.44h-61.44zM419.84 620.544h61.44v61.44h-61.44z" fill="#E60012" /><path d="M479.232 620.544h61.44v61.44h-61.44zM540.672 559.104h61.44v61.44h-61.44zM602.112 559.104h61.44v61.44h-61.44zM540.672 620.544h61.44v61.44h-61.44z" fill="#E60012" /><path d="M602.112 620.544h61.44v61.44h-61.44z" fill="#231815" /><path d="M661.504 256h61.44v61.44h-61.44z" fill="#E60012" /><path d="M722.944 256h61.44v61.44h-61.44z" fill="#231815" /><path d="M661.504 317.44h61.44v61.44h-61.44zM722.944 317.44h61.44v61.44h-61.44z" fill="#E60012" /><path d="M661.504 376.832h61.44v61.44h-61.44zM722.944 376.832h61.44v61.44h-61.44z" fill="#E60012" /><path d="M661.504 438.272h61.44v61.44h-61.44z" fill="#231815" /><path d="M722.944 438.272h61.44v61.44h-61.44zM661.504 499.712h61.44v61.44h-61.44z" fill="#E60012" /><path d="M722.944 499.712h61.44v61.44h-61.44z" fill="#231815" /><path d="M661.504 559.104h61.44v61.44h-61.44z" fill="#E60012" /><path d="M722.944 559.104h61.44v61.44h-61.44z" fill="#009944" /><path d="M661.504 620.544h61.44v61.44h-61.44z" fill="#E60012" /><path d="M722.944 620.544h61.44v61.44h-61.44zM299.008 681.984h61.44v61.44h-61.44z" fill="#009944" /><path d="M358.4 681.984h61.44v61.44h-61.44z" fill="#009944" /><path d="M419.84 681.984h61.44v61.44h-61.44z" fill="#E60012" /><path d="M479.232 681.984h61.44v61.44h-61.44z" fill="#E60012" /><path d="M419.84 741.376h61.44v61.44h-61.44z" fill="#009944" /><path d="M479.232 741.376h61.44v61.44h-61.44z" fill="#009944" /><path d="M540.672 681.984h61.44v61.44h-61.44z" fill="#E60012" /><path d="M602.112 681.984h61.44v61.44h-61.44zM540.672 741.376h61.44v61.44h-61.44z" fill="#009944" /><path d="M661.504 681.984h61.44v61.44h-61.44zM784.384 256h61.44v61.44h-61.44zM784.384 317.44h61.44v61.44h-61.44z" fill="#009944" /><path d="M784.384 376.832h61.44v61.44h-61.44zM784.384 438.272h61.44v61.44h-61.44zM784.384 499.712h61.44v61.44h-61.44z" fill="#009944" /></svg>