<svg viewBox="0 0 239 285" fill="none"
    xmlns="http://www.w3.org/2000/svg">
    <path d="M111.089 1.46392L14.3014 38.4561C10.0809 40.1108 6.4579 43.0006 3.9063 46.7476C1.3547 50.4946 -0.00673882 54.9244 2.50814e-05 59.4578V152.586L44.4807 127.023V74.66L119.028 46.0572V0C116.315 0.00584311 113.626 0.501782 111.089 1.46392Z" fill="#323232"/>
    <path d="M45.269 210.017L119.028 167.507V116.157L5.06742 181.864C3.53338 182.763 2.25955 184.045 1.37109 185.585C0.482635 187.125 0.0101278 188.87 0 190.648V225.05C0.0383054 229.545 1.42074 233.925 3.96943 237.628C6.51811 241.331 10.1164 244.186 14.3014 245.826L111.089 282.819C113.626 283.781 116.315 284.277 119.028 284.282V238.225L45.269 210.017Z" fill="#323232"/>
    <path d="M233.326 101.517C234.78 100.684 235.986 99.4779 236.817 98.0227C237.649 96.5675 238.076 94.9164 238.055 93.2405V59.4577C238.062 54.9244 236.701 50.4946 234.149 46.7476C231.598 43.0005 227.975 40.1107 223.754 38.4561L126.91 1.46392C124.391 0.508427 121.721 0.0125985 119.027 0V46.0572L192.223 74.2095L119.027 116.382V167.732L233.326 101.517Z" fill="#1A1A1A"/>
    <path d="M126.91 282.819L223.754 245.826C227.939 244.186 231.537 241.331 234.086 237.628C236.635 233.925 238.017 229.545 238.056 225.05V130.965L193.575 156.64V209.735L119.027 238.225V284.283C121.721 284.27 124.391 283.774 126.91 282.819Z" fill="#1A1A1A"/>
</svg>
