<svg width="736" height="657" viewBox="0 0 736 657" fill="none" xmlns="http://www.w3.org/2000/svg">
<path d="M493.957 624.09C493.158 623.452 492.638 623.034 492.139 622.593C484.577 615.913 484.382 615.646 476.192 621.697C454.333 637.847 430.06 648.449 403.449 653.545C377.838 658.449 352.649 657.468 327.276 650.091C302.489 642.884 280.713 630.669 260.72 615.077C247.81 605.009 236.493 593.124 226.068 580.301C213.49 564.829 203.085 548.106 193.874 530.553C184.985 513.614 178.428 495.705 173.042 477.405C167.417 458.299 163.358 438.879 161.461 418.96C159.873 402.284 158.275 385.652 158.583 368.884C158.594 368.284 158.316 367.678 158.115 366.837C155.042 367.63 154.437 370.695 152.156 372.084C141.706 378.447 130.767 379.201 119.671 374.822C115.478 373.168 114.158 374.479 113.366 377.951C108.706 398.361 113.407 416.759 125.7 433.359C132.468 442.498 140.75 450.044 150.814 455.511C154.302 457.405 154.128 460.326 153.394 463.696C152.644 467.135 150.254 466.998 147.696 467.102C145.258 467.2 143.075 466.477 141.036 465.299C118.173 452.097 102.532 433.133 96.6846 407.187C93.6292 393.629 93.8021 379.788 99.3305 366.562C100.593 363.541 100.501 360.892 98.3365 358.25C94.3144 353.341 91.5639 347.722 89.8438 341.629C89.3688 339.947 88.7155 338.421 87.3002 337.469C82.621 334.322 77.855 331.303 73.1507 328.192C71.6586 327.206 70.5562 327.129 68.6939 328.001C56.7064 333.617 44.4699 334.228 31.5377 330.71C13.4055 325.777 3.81521 313.21 1.09869 295.992C-2.42463 273.66 8.66085 256.999 30.7082 249.889C37.6496 247.65 44.6066 245.277 52.1047 245.397C53.6031 245.421 55.1191 244.342 57.1468 243.576C54.0971 240.193 51.2406 237.268 48.6575 234.118C37.4888 220.501 30.82 205.08 29.5892 187.335C28.7071 174.618 29.8444 162.208 33.6507 150.046C37.2538 138.532 53.3522 125.038 65.316 124.845C75.8601 124.675 85.4044 128.178 93.3153 135.882C97.383 139.843 99.8625 144.958 104.172 149.413C107.306 144.001 109.95 138.858 113.123 134.067C122.885 119.33 137.09 113.025 154.378 113.633C159.854 113.825 165.004 115.974 169.029 120.246C170.543 121.853 172.466 124.266 175.419 121.357C172.356 117.689 167.751 116.678 164.291 113.852C151.77 103.62 147.438 89.963 146.779 74.6661C146.581 70.077 145.917 65.345 147.719 60.8115C149.709 55.8067 151.498 55.3985 154.964 59.3606C157.817 62.6225 160.321 66.1264 162.306 69.9997C167.891 80.8942 175.414 84.0979 187.385 81.0047C199.785 77.8006 208.636 70.1486 215.514 59.6337C224.298 46.2049 235.243 34.7356 247.497 24.3591C258.174 15.3174 269.931 8.30084 283.091 3.84283C291.021 1.1564 299.422 1.29234 307.784 0.710525C318.195 -0.0138564 327.538 2.59802 336.957 5.20053C347.976 8.24493 358.611 12.6937 367.998 19.5702C370.756 21.5901 373.439 21.9842 376.659 19.8554C384.928 14.3876 393.203 8.91711 402.943 6.13389C411.756 3.61561 420.34 2.92523 429.554 4.70776C444.493 7.59804 455.115 15.9972 463.627 27.9052C469.541 36.1793 473.714 45.373 477.202 54.832C478.983 59.6634 481.08 61.0464 486.374 59.6689C506.414 54.4554 526.604 53.5946 547.02 58.2161C573.877 64.2954 595.531 78.5776 613.037 99.3412C628.909 118.168 639.685 139.803 645.664 163.665C648.442 174.756 648.512 186.26 649.322 197.649C650.028 207.58 651.909 217.425 653.169 227.321C654.526 237.984 660.444 246.159 667.699 253.423C676.822 262.557 689.719 256.425 695.736 249.249C699.561 244.688 700.647 244.571 703.759 249.773C706.169 253.802 706.076 258.25 704.643 262.343C698.323 280.383 686.953 292.858 666.925 295.374C663.898 295.754 661.331 296.754 664.035 300.439C675.067 315.471 678.029 333.266 681.146 350.938C684.084 367.587 680.987 384.001 678.976 400.531C677.443 413.131 676.183 426.007 679.374 438.663C681.614 447.544 686.317 455.072 692.779 461.471C700.724 469.339 712.206 469.613 720.681 462.332C722.695 460.602 724.641 458.731 726.871 457.325C731.561 454.37 734.171 455.721 735.027 461.332C736.005 467.743 734.488 473.554 730.665 478.764C717.95 496.095 701.845 507.57 679.531 508.235C673.64 508.41 667.927 507.374 662.388 505.395C656.684 503.357 655.472 504.26 656.73 510.405C658.966 521.324 657.569 531.814 654.144 542.287C647.821 561.621 634.69 575.107 617.925 585.708C610.482 590.415 602.547 593.575 593.847 594.868C591.679 595.19 589.542 595.282 587.411 594.68C579.404 592.418 578.346 588.408 584.035 582.442C590.142 576.037 594.429 568.681 595.405 559.126C592.083 559.939 590.187 562.354 588.039 564.131C580.189 570.623 571.541 575.807 562.741 580.88C552.014 587.064 541.612 593.775 538.862 607.393C537.914 612.085 539.169 615.453 542.893 618.282C545.124 619.977 547.692 621.299 549.291 623.788C551.467 627.176 550.611 629.597 547.333 631.695C533.367 640.633 519.488 638.08 505.606 631.538C501.513 629.609 497.842 627.01 493.957 624.09ZM341.81 222.604C337.105 232.831 330.753 242.038 323.204 250.264C304.783 270.335 284.053 285.131 254.508 278.232C241.52 275.199 230.718 268.086 220.289 260.312C217.502 258.234 218.328 255.133 221.456 254.239C223.058 253.78 224.701 253.814 226.376 254.302C233.732 256.448 239.68 253.946 244.849 248.684C255.786 237.552 255.268 219.126 250.477 206.568C250.3 206.104 249.451 205.896 249.071 205.663C247.736 206.177 247.422 207.131 247.043 208.063C243.187 217.548 237.703 225.932 231.113 233.818C226.24 239.649 219.621 243.827 216.064 250.947C212.852 257.374 208.231 263.224 202.27 267.153C195.225 271.797 192.518 278.488 190.224 285.9C186.246 298.756 186.867 311.902 187.756 324.994C188.004 328.649 186.745 332.899 189.5 336.077C191.942 338.894 190.512 340.426 188.34 342.184C184.077 345.633 179.552 343.689 175.108 342.68C174.229 344.826 174.268 346.805 174.106 348.78C173.113 360.882 173.411 373.014 173.161 385.133C172.802 402.492 174.763 419.717 177.856 436.703C180.795 452.839 184.982 468.725 190.199 484.381C197.865 507.387 208.37 529.006 221.364 549.262C232.484 566.597 246.229 582.004 261.617 595.873C279.164 611.687 299.152 623.637 321.348 631.062C346.075 639.334 371.602 640.902 397.574 636.271C421.512 632.002 442.511 621.604 462.165 607.971C481.555 594.521 497.343 577.508 511.173 558.434C523.304 541.701 532.79 523.566 541.096 504.792C543.203 500.029 545.36 495.145 546.854 490.086C549.581 480.852 552.195 471.584 554.866 462.334C555.237 461.049 555.58 459.499 557.059 459.23C564.343 457.905 569.656 452.702 576.006 449.553C584.608 445.287 592.589 439.643 599.872 433.39C607.914 426.483 614.429 418.1 619.045 408.397C622.789 400.529 624.313 391.893 625.038 383.544C625.847 374.227 623.761 364.686 618.657 356.37C612.183 345.821 605.011 336.071 592.741 331.292C579.602 326.175 566.773 327.384 553.927 331.955C551.109 332.957 548.362 334.804 545.337 334.025C541.902 333.14 539.661 334.766 537.228 336.56C532.662 339.926 527.993 342.997 522.27 344.301C518.61 345.135 517.289 343.617 516.885 340.486C516.624 338.454 517.241 336.593 518.219 334.756C521.343 328.892 524.392 322.984 527.335 317.027C528.073 315.536 529.507 313.932 527.991 312.014C525.466 311.891 524.18 313.9 522.417 315.04C512.785 321.27 502.871 326.428 490.748 324.323C480.939 322.621 478.803 318.022 484.289 309.846C485.306 308.33 486.464 306.901 487.633 305.496C496.092 295.324 502.878 284.179 506.082 271.266C506.934 267.835 509.041 263.955 506.238 259.224C502.229 268.417 496.143 274.932 489.028 280.459C478.855 288.359 467.384 293.408 454.545 295.107C451.237 295.545 449.559 293.811 450.466 290.706C451.659 286.617 452.938 282.644 456.572 279.561C464.008 273.252 466.495 264.414 465.406 255.207C464.228 245.244 460.434 235.85 454.482 227.627C443.384 212.298 428.308 201.82 411.717 193.271C408.29 191.505 407.46 193.67 407.413 196.322C407.318 201.669 408.117 206.923 409.824 212.012C414.147 224.906 421.656 235.805 431.241 245.262C433.765 247.752 436.093 250.866 439.932 251.7C445.72 252.958 446.063 253.976 443.058 259.033C441.11 262.312 438.299 264.15 434.777 264.92C429.903 265.987 425.006 267.163 420.056 267.632C406.661 268.902 393.217 268.71 380.998 262.367C364.713 253.913 352.293 241.595 346.043 223.822C345.502 222.284 345.044 219.094 341.81 222.604ZM208.713 209.754C208.43 208.288 208.234 206.799 207.851 205.36C203.844 190.295 192.972 180.687 175.785 188.478C160.855 195.244 149.519 206.322 138.698 218.109C136.697 220.288 134.774 221.83 131.842 220.105C128.923 218.387 129.113 215.928 130.273 213.167C132.102 208.814 134.716 205.04 137.842 201.506C146.278 191.967 156.362 183.91 162.554 172.348C168.673 160.923 170.168 149.435 164.737 137.582C162.736 133.215 159.519 129.427 154.091 128.726C143.439 127.35 134.349 132.081 127.406 138.721C117.631 148.068 112.364 160.236 111.964 174.352C111.648 185.541 114.531 196.105 116.704 206.821C117.46 210.545 115.792 212.198 113.077 213.441C110.186 214.766 108.847 212.531 107.609 210.505C102.502 202.15 99.1975 192.848 98.4224 183.364C97.4175 171.071 91.3557 161.515 84.7673 152.112C82.217 148.472 78.6201 145.069 74.2824 143.148C63.5237 138.384 52.0097 144.046 47.7595 156.119C44.3578 165.782 43.4656 175.733 44.0129 185.948C45.0268 204.873 53.4381 220.313 66.343 233.489C71.2305 238.479 76.5162 242.979 80.0116 249.187C81.5147 251.857 80.9999 253.365 78.1861 253.886C74.7517 254.521 71.2492 254.863 67.7416 254.441C53.7544 252.758 41.4929 257.838 29.8807 264.635C23.2574 268.512 18.1669 274.387 16.7266 282.119C14.5491 293.808 17.908 307.35 31.5699 315.432C39.909 320.365 58.639 320.669 67.6462 313.373C78.7315 304.393 88.5597 294.452 96.5734 282.68C97.9253 280.694 99.7667 278.38 102.19 280.036C104.528 281.634 106.928 284.212 105.726 287.605C103.595 293.62 102.641 299.872 101.818 306.111C98.9214 328.079 103.259 349.26 125.001 360.959C131.367 364.385 141.255 364.729 145.766 360.413C151.356 355.064 155.986 348.944 156.857 340.827C158.193 328.369 155.661 316.295 152.453 304.453C149.125 292.167 143.135 281.007 135.317 270.916C133.576 268.669 134.025 266.861 135.195 264.541C136.327 262.298 137.668 261.045 140.172 261.377C143.623 261.833 147.197 261.275 150.543 262.539C158.192 265.426 166.024 265.226 174.001 264.376C184.793 263.227 193.053 257.589 199.471 249.511C208.497 238.153 211.677 225.026 208.713 209.754Z" fill="black"/>
<path d="M246.827 398.835C244.912 403.27 239.673 406.494 236.486 404.749C232.899 402.784 232.242 399.258 233.413 395.243C237.83 380.082 247.253 368.589 259.574 359.218C270.119 351.2 282.257 346.894 295.081 344.179C299.781 343.184 304.409 343.876 308.918 344.751C312.347 345.417 315.44 347.386 316.355 351.342C317.269 355.297 321.513 356.825 322.547 361.234C324.947 371.464 324.665 381.443 322.507 391.51C321.883 394.421 320.734 397.228 319.723 400.045C317.802 405.405 312.562 409.772 308.184 409.758C302.775 409.741 295.992 404.538 293.814 399.579C288.985 388.578 289.981 377.585 293.103 366.484C293.59 364.754 294.344 363.064 293.779 360.539C272.129 365.965 256.486 378.37 246.827 398.835Z" fill="black"/>
<path d="M475.959 378.521C474.594 384.617 473.63 390.282 470.002 395.209C466.352 400.168 461.707 404.096 455.851 402.106C449.621 399.988 444.713 395.341 442.728 388.229C440.02 378.521 441.314 368.995 443.259 359.137C436.878 358.278 431.6 360.938 426.594 363.593C414.059 370.241 404.378 379.723 398.804 393.099C396.79 397.931 393.775 398.977 389.176 397.103C384.838 395.335 384.348 391.784 385.762 388.004C396.791 358.529 424.912 336.315 458.92 343.081C464.836 344.258 469.444 348.044 471.931 353.785C475.285 361.527 477.028 369.583 475.959 378.521Z" fill="black"/>
<path d="M330.671 398.748C334.807 386.666 336.71 374.487 338.692 362.346C339.364 358.228 339.723 354.624 345.378 355.647C348.71 356.249 351.374 359.991 350.846 364.359C350.088 370.631 349.336 376.922 348.134 383.117C344.738 400.616 339.695 417.53 332.54 433.995C325.775 449.566 328.619 463.28 342.121 472.434C344.112 473.783 346.286 474.907 348.61 474.724C353.361 474.352 356.695 477.328 360.464 479.239C362.985 480.517 362.31 482.91 361.737 485.005C360.783 488.49 358.129 489.75 354.837 489.42C347.635 488.697 341.012 486.31 334.785 482.514C318.568 472.628 315.808 457.19 316.871 440.082C317.515 429.711 322.284 420.68 326.156 411.344C327.813 407.35 329.12 403.21 330.671 398.748Z" fill="black"/>
<path d="M374.335 553.551C365.144 557.238 356.049 559.684 346.493 560.236C342.274 560.48 339.261 559.209 338.795 554.519C338.34 549.943 341.158 548.516 345.057 547.893C365.778 544.581 383.655 536.192 396.687 519.032C399.09 515.868 402.457 515.043 405.92 517.577C409.064 519.878 408.94 524.911 406.036 528.798C398.325 539.118 388.759 547.099 376.912 552.273C376.151 552.605 375.425 553.016 374.335 553.551Z" fill="black"/>
<path d="M87.6538 212.352C94.7996 222.788 104.137 230.053 115.06 235.459C117.436 236.635 119.632 238.166 121.97 239.424C125.482 241.314 127.224 244.282 126.153 248.057C124.919 252.406 120.237 254.659 115.831 253.685C103.677 250.998 94.7298 243.167 86.9055 234.336C76.7192 222.839 70.4019 209.077 67.3386 193.997C66.5273 190.003 65.4127 185.475 70.5834 181.335C75.5465 192.393 80.3175 202.925 87.6538 212.352Z" fill="black"/>
<path d="M50.2974 186.399C50.8894 182.436 52.8308 180.188 56.5038 179.889C60.034 179.601 61.953 181.985 63.3648 184.732C65.538 188.962 66.8641 193.382 65.2306 198.16C64.422 200.525 62.8296 202.276 60.3483 202.678C57.859 203.081 55.8395 201.86 54.3433 199.871C51.4325 196 50.3858 191.529 50.2974 186.399Z" fill="black"/>
<path d="M90.4331 182.728C91.0733 185.291 90.7154 187.438 89.9787 189.468C89.0719 191.968 87.2311 193.602 84.5453 194.049C81.7867 194.508 79.541 193.373 78.1402 191.123C76.016 187.712 74.5847 183.999 74.8503 179.844C75.0829 176.203 76.5529 173.296 80.3016 172.416C83.7898 171.597 85.8723 174.088 87.5663 176.569C88.7591 178.316 89.4495 180.406 90.4331 182.728Z" fill="black"/>
<path d="M58.337 166.469C58.0548 159.174 60.0831 155.235 64.0207 154.89C67.8162 154.558 71.4636 158.442 72.8728 164.28C73.3497 166.256 73.4002 168.243 73.0489 170.226C72.4383 173.673 70.5748 176.035 66.9797 176.609C63.3704 177.186 61.3953 174.904 60.0184 172.096C59.2261 170.48 58.9282 168.621 58.337 166.469Z" fill="black"/>
</svg>
